# Blender 5.0.0
# www.blender.org
o Suzanne
v 0.437500 -0.765625 0.164062 0.8323 0.2490 0.7878
v -0.437500 -0.765625 0.164062 0.6181 0.2490 0.7878
v 0.500000 -0.687500 0.093750 0.8449 0.3429 0.7659
v -0.500000 -0.687500 0.093750 0.5988 0.3429 0.7659
v 0.546875 -0.578125 0.054688 0.8543 0.4374 0.7533
v -0.546875 -0.578125 0.054688 0.5838 0.4374 0.7533
v 0.351562 -0.617188 -0.023438 0.8144 0.4067 0.7274
v -0.351562 -0.617188 -0.023438 0.6434 0.4067 0.7274
v 0.351562 -0.718750 0.031250 0.8144 0.3094 0.7457
v -0.351562 -0.718750 0.031250 0.6434 0.3094 0.7457
v 0.351562 -0.781250 0.132812 0.8144 0.2246 0.7781
v -0.351562 -0.781250 0.132812 0.6434 0.2246 0.7781
v 0.273438 -0.796875 0.164062 0.7977 0.1968 0.7878
v -0.273438 -0.796875 0.164062 0.6652 0.1968 0.7878
v 0.203125 -0.742188 0.093750 0.7823 0.2811 0.7659
v -0.203125 -0.742188 0.093750 0.6841 0.2811 0.7659
v 0.156250 -0.648438 0.054688 0.7718 0.3800 0.7533
v -0.156250 -0.648438 0.054688 0.6964 0.3800 0.7533
v 0.078125 -0.656250 0.242188 0.7538 0.3729 0.8112
v -0.078125 -0.656250 0.242188 0.7162 0.3729 0.8112
v 0.140625 -0.742188 0.242188 0.7682 0.2811 0.8112
v -0.140625 -0.742188 0.242188 0.7004 0.2811 0.8112
v 0.242188 -0.796875 0.242188 0.7909 0.1968 0.8112
v -0.242188 -0.796875 0.242188 0.6737 0.1968 0.8112
v 0.273438 -0.796875 0.328125 0.7977 0.1968 0.8360
v -0.273438 -0.796875 0.328125 0.6652 0.1968 0.8360
v 0.203125 -0.742188 0.390625 0.7823 0.2811 0.8534
v -0.203125 -0.742188 0.390625 0.6841 0.2811 0.8534
v 0.156250 -0.648438 0.437500 0.7718 0.3800 0.8662
v -0.156250 -0.648438 0.437500 0.6964 0.3800 0.8662
v 0.351562 -0.617188 0.515625 0.8144 0.4067 0.8870
v -0.351562 -0.617188 0.515625 0.6434 0.4067 0.8870
v 0.351562 -0.718750 0.453125 0.8144 0.3094 0.8704
v -0.351562 -0.718750 0.453125 0.6434 0.3094 0.8704
v 0.351562 -0.781250 0.359375 0.8144 0.2246 0.8448
v -0.351562 -0.781250 0.359375 0.6434 0.2246 0.8448
v 0.437500 -0.765625 0.328125 0.8323 0.2490 0.8360
v -0.437500 -0.765625 0.328125 0.6181 0.2490 0.8360
v 0.500000 -0.687500 0.390625 0.8449 0.3429 0.8534
v -0.500000 -0.687500 0.390625 0.5988 0.3429 0.8534
v 0.546875 -0.578125 0.437500 0.8543 0.4374 0.8662
v -0.546875 -0.578125 0.437500 0.5838 0.4374 0.8662
v 0.625000 -0.562500 0.242188 0.8696 0.4489 0.8112
v -0.625000 -0.562500 0.242188 0.5578 0.4489 0.8112
v 0.562500 -0.671875 0.242188 0.8574 0.3583 0.8112
v -0.562500 -0.671875 0.242188 0.5787 0.3583 0.8112
v 0.468750 -0.757812 0.242188 0.8386 0.2602 0.8112
v -0.468750 -0.757812 0.242188 0.6085 0.2602 0.8112
v 0.476562 -0.773438 0.242188 0.8402 0.2372 0.8112
v -0.476562 -0.773438 0.242188 0.6061 0.2372 0.8112
v 0.445312 -0.781250 0.335938 0.8338 0.2246 0.8382
v -0.445312 -0.781250 0.335938 0.6157 0.2246 0.8382
v 0.351562 -0.804688 0.375000 0.8144 0.1811 0.8491
v -0.351562 -0.804688 0.375000 0.6434 0.1811 0.8491
v 0.265625 -0.820312 0.335938 0.7960 0.1444 0.8382
v -0.265625 -0.820312 0.335938 0.6674 0.1444 0.8382
v 0.226562 -0.820312 0.242188 0.7875 0.1444 0.8112
v -0.226562 -0.820312 0.242188 0.6779 0.1444 0.8112
v 0.265625 -0.820312 0.156250 0.7960 0.1444 0.7854
v -0.265625 -0.820312 0.156250 0.6674 0.1444 0.7854
v 0.351562 -0.828125 0.242188 0.8144 0.1219 0.8112
v -0.351562 -0.828125 0.242188 0.6434 0.1219 0.8112
v 0.351562 -0.804688 0.117188 0.8144 0.1811 0.7733
v -0.351562 -0.804688 0.117188 0.6434 0.1811 0.7733
v 0.445312 -0.781250 0.156250 0.8338 0.2246 0.7854
v -0.445312 -0.781250 0.156250 0.6157 0.2246 0.7854
v 0.000000 -0.742188 0.429688 0.7353 0.2811 0.8641
v 0.000000 -0.820312 0.351562 0.7353 0.1444 0.8426
v 0.000000 -0.734375 -0.679688 0.7353 0.2909 0.4299
v 0.000000 -0.781250 -0.320312 0.7353 0.2246 0.6158
v 0.000000 -0.796875 -0.187500 0.7353 0.1968 0.6688
v 0.000000 -0.718750 -0.773438 0.7353 0.3094 0.3610
v 0.000000 -0.601562 0.406250 0.7353 0.4193 0.8577
v 0.000000 -0.570312 0.570312 0.7353 0.4432 0.9011
v 0.000000 0.546875 0.898438 0.7353 0.9168 0.9805
v 0.000000 0.851562 0.562500 0.7353 1.0000 0.8991
v 0.000000 0.828125 0.070312 0.7353 0.9939 0.7584
v 0.000000 0.351562 -0.382812 0.7353 0.8577 0.5887
v 0.203125 -0.562500 -0.187500 0.7823 0.4489 0.6688
v -0.203125 -0.562500 -0.187500 0.6841 0.4489 0.6688
v 0.312500 -0.570312 -0.437500 0.8061 0.4432 0.5637
v -0.312500 -0.570312 -0.437500 0.6544 0.4432 0.5637
v 0.351562 -0.570312 -0.695312 0.8144 0.4432 0.4193
v -0.351562 -0.570312 -0.695312 0.6434 0.4432 0.4193
v 0.367188 -0.531250 -0.890625 0.8177 0.4709 0.2417
v -0.367188 -0.531250 -0.890625 0.6389 0.4709 0.2417
v 0.328125 -0.523438 -0.945312 0.8094 0.4762 0.1510
v -0.328125 -0.523438 -0.945312 0.6500 0.4762 0.1510
v 0.179688 -0.554688 -0.968750 0.7771 0.4545 0.0856
v -0.179688 -0.554688 -0.968750 0.6903 0.4545 0.0856
v 0.000000 -0.578125 -0.984375 0.7353 0.4374 0.0000
v 0.437500 -0.531250 -0.140625 0.8323 0.4709 0.6862
v -0.437500 -0.531250 -0.140625 0.6181 0.4709 0.6862
v 0.632812 -0.539062 -0.039062 0.8711 0.4655 0.7221
v -0.632812 -0.539062 -0.039062 0.5551 0.4655 0.7221
v 0.828125 -0.445312 0.148438 0.9077 0.5256 0.7830
v -0.828125 -0.445312 0.148438 0.4813 0.5256 0.7830
v 0.859375 -0.593750 0.429688 0.9134 0.4254 0.8641
v -0.859375 -0.593750 0.429688 0.4681 0.4254 0.8641
v 0.710938 -0.625000 0.484375 0.8860 0.4002 0.8787
v -0.710938 -0.625000 0.484375 0.5271 0.4002 0.8787
v 0.492188 -0.687500 0.601562 0.8434 0.3429 0.9091
v -0.492188 -0.687500 0.601562 0.6012 0.3429 0.9091
v 0.320312 -0.734375 0.757812 0.8078 0.2909 0.9476
v -0.320312 -0.734375 0.757812 0.6522 0.2909 0.9476
v 0.156250 -0.757812 0.718750 0.7718 0.2602 0.9381
v -0.156250 -0.757812 0.718750 0.6964 0.2602 0.9381
v 0.062500 -0.750000 0.492188 0.7502 0.2709 0.8808
v -0.062500 -0.750000 0.492188 0.7201 0.2709 0.8808
v 0.164062 -0.773438 0.414062 0.7735 0.2372 0.8598
v -0.164062 -0.773438 0.414062 0.6944 0.2372 0.8598
v 0.125000 -0.765625 0.304688 0.7647 0.2490 0.8293
v -0.125000 -0.765625 0.304688 0.7044 0.2490 0.8293
v 0.203125 -0.742188 0.093750 0.7823 0.2811 0.7659
v -0.203125 -0.742188 0.093750 0.6841 0.2811 0.7659
v 0.375000 -0.703125 0.015625 0.8193 0.3267 0.7405
v -0.375000 -0.703125 0.015625 0.6366 0.3267 0.7405
v 0.492188 -0.671875 0.062500 0.8434 0.3583 0.7559
v -0.492188 -0.671875 0.062500 0.6012 0.3583 0.7559
v 0.625000 -0.648438 0.187500 0.8696 0.3800 0.7949
v -0.625000 -0.648438 0.187500 0.5578 0.3800 0.7949
v 0.640625 -0.648438 0.296875 0.8726 0.3800 0.8271
v -0.640625 -0.648438 0.296875 0.5524 0.3800 0.8271
v 0.601562 -0.664062 0.375000 0.8650 0.3657 0.8491
v -0.601562 -0.664062 0.375000 0.5657 0.3657 0.8491
v 0.429688 -0.718750 0.437500 0.8306 0.3094 0.8662
v -0.429688 -0.718750 0.437500 0.6204 0.3094 0.8662
v 0.250000 -0.757812 0.468750 0.7926 0.2602 0.8746
v -0.250000 -0.757812 0.468750 0.6716 0.2602 0.8746
v 0.000000 -0.734375 -0.765625 0.7353 0.2909 0.3673
v 0.109375 -0.734375 -0.718750 0.7611 0.2909 0.4029
v -0.109375 -0.734375 -0.718750 0.7084 0.2909 0.4029
v 0.117188 -0.710938 -0.835938 0.7629 0.3182 0.3043
v -0.117188 -0.710938 -0.835938 0.7064 0.3182 0.3043
v 0.062500 -0.695312 -0.882812 0.7502 0.3349 0.2518
v -0.062500 -0.695312 -0.882812 0.7201 0.3349 0.2518
v 0.000000 -0.687500 -0.890625 0.7353 0.3429 0.2417
v 0.000000 -0.750000 -0.195312 0.7353 0.2709 0.6658
v 0.000000 -0.742188 -0.140625 0.7353 0.2811 0.6862
v 0.101562 -0.742188 -0.148438 0.7593 0.2811 0.6833
v -0.101562 -0.742188 -0.148438 0.7103 0.2811 0.6833
v 0.125000 -0.750000 -0.226562 0.7647 0.2709 0.6538
v -0.125000 -0.750000 -0.226562 0.7044 0.2709 0.6538
v 0.085938 -0.742188 -0.289062 0.7557 0.2811 0.6289
v -0.085938 -0.742188 -0.289062 0.7143 0.2811 0.6289
v 0.398438 -0.671875 -0.046875 0.8242 0.3583 0.7194
v -0.398438 -0.671875 -0.046875 0.6298 0.3583 0.7194
v 0.617188 -0.625000 0.054688 0.8680 0.4002 0.7533
v -0.617188 -0.625000 0.054688 0.5604 0.4002 0.7533
v 0.726562 -0.601562 0.203125 0.8889 0.4193 0.7996
v -0.726562 -0.601562 0.203125 0.5213 0.4193 0.7996
v 0.742188 -0.656250 0.375000 0.8918 0.3729 0.8491
v -0.742188 -0.656250 0.375000 0.5154 0.3729 0.8491
v 0.687500 -0.726562 0.414062 0.8815 0.3003 0.8598
v -0.687500 -0.726562 0.414062 0.5357 0.3003 0.8598
v 0.437500 -0.796875 0.546875 0.8323 0.1968 0.8951
v -0.437500 -0.796875 0.546875 0.6181 0.1968 0.8951
v 0.312500 -0.835938 0.640625 0.8061 0.0944 0.9189
v -0.312500 -0.835938 0.640625 0.6544 0.0944 0.9189
v 0.203125 -0.851562 0.617188 0.7823 0.0000 0.9130
v -0.203125 -0.851562 0.617188 0.6841 0.0000 0.9130
v 0.101562 -0.843750 0.429688 0.7593 0.0569 0.8641
v -0.101562 -0.843750 0.429688 0.7103 0.0569 0.8641
v 0.125000 -0.812500 -0.101562 0.7647 0.1639 0.7003
v -0.125000 -0.812500 -0.101562 0.7044 0.1639 0.7003
v 0.210938 -0.710938 -0.445312 0.7840 0.3182 0.5600
v -0.210938 -0.710938 -0.445312 0.6821 0.3182 0.5600
v 0.250000 -0.687500 -0.703125 0.7926 0.3429 0.4140
v -0.250000 -0.687500 -0.703125 0.6716 0.3429 0.4140
v 0.265625 -0.664062 -0.820312 0.7960 0.3657 0.3196
v -0.265625 -0.664062 -0.820312 0.6674 0.3657 0.3196
v 0.234375 -0.632812 -0.914062 0.7892 0.3936 0.2082
v -0.234375 -0.632812 -0.914062 0.6758 0.3936 0.2082
v 0.164062 -0.632812 -0.929688 0.7735 0.3936 0.1820
v -0.164062 -0.632812 -0.929688 0.6944 0.3936 0.1820
v 0.000000 -0.640625 -0.945312 0.7353 0.3869 0.1510
v 0.000000 -0.726562 0.046875 0.7353 0.3003 0.7508
v 0.000000 -0.765625 0.210938 0.7353 0.2490 0.8019
v 0.328125 -0.742188 0.476562 0.8094 0.2811 0.8767
v -0.328125 -0.742188 0.476562 0.6500 0.2811 0.8767
v 0.164062 -0.750000 0.140625 0.7735 0.2709 0.7805
v -0.164062 -0.750000 0.140625 0.6944 0.2709 0.7805
v 0.132812 -0.757812 0.210938 0.7665 0.2602 0.8019
v -0.132812 -0.757812 0.210938 0.7024 0.2602 0.8019
v 0.117188 -0.734375 -0.687500 0.7629 0.2909 0.4246
v -0.117188 -0.734375 -0.687500 0.7064 0.2909 0.4246
v 0.078125 -0.750000 -0.445312 0.7538 0.2709 0.5600
v -0.078125 -0.750000 -0.445312 0.7162 0.2709 0.5600
v 0.000000 -0.750000 -0.445312 0.7353 0.2709 0.5600
v 0.000000 -0.742188 -0.328125 0.7353 0.2811 0.6125
v 0.093750 -0.781250 -0.273438 0.7575 0.2246 0.6352
v -0.093750 -0.781250 -0.273438 0.7123 0.2246 0.6352
v 0.132812 -0.796875 -0.226562 0.7665 0.1968 0.6538
v -0.132812 -0.796875 -0.226562 0.7024 0.1968 0.6538
v 0.109375 -0.781250 -0.132812 0.7611 0.2246 0.6891
v -0.109375 -0.781250 -0.132812 0.7084 0.2246 0.6891
v 0.039062 -0.781250 -0.125000 0.7447 0.2246 0.6919
v -0.039062 -0.781250 -0.125000 0.7259 0.2246 0.6919
v 0.000000 -0.828125 -0.203125 0.7353 0.1219 0.6628
v 0.046875 -0.812500 -0.148438 0.7465 0.1639 0.6833
v -0.046875 -0.812500 -0.148438 0.7239 0.1639 0.6833
v 0.093750 -0.812500 -0.156250 0.7575 0.1639 0.6805
v -0.093750 -0.812500 -0.156250 0.7123 0.1639 0.6805
v 0.109375 -0.828125 -0.226562 0.7611 0.1219 0.6538
v -0.109375 -0.828125 -0.226562 0.7084 0.1219 0.6538
v 0.078125 -0.804688 -0.250000 0.7538 0.1811 0.6446
v -0.078125 -0.804688 -0.250000 0.7162 0.1811 0.6446
v 0.000000 -0.804688 -0.289062 0.7353 0.1811 0.6289
v 0.257812 -0.554688 -0.312500 0.7943 0.4545 0.6191
v -0.257812 -0.554688 -0.312500 0.6695 0.4545 0.6191
v 0.164062 -0.710938 -0.242188 0.7735 0.3182 0.6477
v -0.164062 -0.710938 -0.242188 0.6944 0.3182 0.6477
v 0.179688 -0.710938 -0.312500 0.7771 0.3182 0.6191
v -0.179688 -0.710938 -0.312500 0.6903 0.3182 0.6191
v 0.234375 -0.554688 -0.250000 0.7892 0.4545 0.6446
v -0.234375 -0.554688 -0.250000 0.6758 0.4545 0.6446
v 0.000000 -0.687500 -0.875000 0.7353 0.3429 0.2614
v 0.046875 -0.687500 -0.867188 0.7465 0.3429 0.2706
v -0.046875 -0.687500 -0.867188 0.7239 0.3429 0.2706
v 0.093750 -0.710938 -0.820312 0.7575 0.3182 0.3196
v -0.093750 -0.710938 -0.820312 0.7123 0.3182 0.3196
v 0.093750 -0.726562 -0.742188 0.7575 0.3003 0.3856
v -0.093750 -0.726562 -0.742188 0.7123 0.3003 0.3856
v 0.000000 -0.656250 -0.781250 0.7353 0.3729 0.3545
v 0.093750 -0.664062 -0.750000 0.7575 0.3657 0.3796
v -0.093750 -0.664062 -0.750000 0.7123 0.3657 0.3796
v 0.093750 -0.640625 -0.812500 0.7575 0.3869 0.3269
v -0.093750 -0.640625 -0.812500 0.7123 0.3869 0.3269
v 0.046875 -0.632812 -0.851562 0.7465 0.3936 0.2880
v -0.046875 -0.632812 -0.851562 0.7239 0.3936 0.2880
v 0.000000 -0.632812 -0.859375 0.7353 0.3936 0.2795
v 0.171875 -0.781250 0.218750 0.7753 0.2246 0.8043
v -0.171875 -0.781250 0.218750 0.6923 0.2246 0.8043
v 0.187500 -0.773438 0.156250 0.7788 0.2372 0.7854
v -0.187500 -0.773438 0.156250 0.6883 0.2372 0.7854
v 0.335938 -0.757812 0.429688 0.8111 0.2602 0.8641
v -0.335938 -0.757812 0.429688 0.6478 0.2602 0.8641
v 0.273438 -0.773438 0.421875 0.7977 0.2372 0.8620
v -0.273438 -0.773438 0.421875 0.6652 0.2372 0.8620
v 0.421875 -0.773438 0.398438 0.8290 0.2372 0.8556
v -0.421875 -0.773438 0.398438 0.6228 0.2372 0.8556
v 0.562500 -0.695312 0.351562 0.8574 0.3349 0.8426
v -0.562500 -0.695312 0.351562 0.5787 0.3349 0.8426
v 0.585938 -0.687500 0.289062 0.8620 0.3429 0.8248
v -0.585938 -0.687500 0.289062 0.5710 0.3429 0.8248
v 0.578125 -0.679688 0.195312 0.8604 0.3507 0.7972
v -0.578125 -0.679688 0.195312 0.5736 0.3507 0.7972
v 0.476562 -0.718750 0.101562 0.8402 0.3094 0.7683
v -0.476562 -0.718750 0.101562 0.6061 0.3094 0.7683
v 0.375000 -0.742188 0.062500 0.8193 0.2811 0.7559
v -0.375000 -0.742188 0.062500 0.6366 0.2811 0.7559
v 0.226562 -0.781250 0.109375 0.7875 0.2246 0.7708
v -0.226562 -0.781250 0.109375 0.6779 0.2246 0.7708
v 0.179688 -0.781250 0.296875 0.7771 0.2246 0.8271
v -0.179688 -0.781250 0.296875 0.6903 0.2246 0.8271
v 0.210938 -0.781250 0.375000 0.7840 0.2246 0.8491
v -0.210938 -0.781250 0.375000 0.6821 0.2246 0.8491
v 0.234375 -0.757812 0.359375 0.7892 0.2602 0.8448
v -0.234375 -0.757812 0.359375 0.6758 0.2602 0.8448
v 0.195312 -0.757812 0.296875 0.7805 0.2602 0.8271
v -0.195312 -0.757812 0.296875 0.6862 0.2602 0.8271
v 0.242188 -0.757812 0.125000 0.7909 0.2602 0.7757
v -0.242188 -0.757812 0.125000 0.6737 0.2602 0.7757
v 0.375000 -0.726562 0.085938 0.8193 0.3003 0.7634
v -0.375000 -0.726562 0.085938 0.6366 0.3003 0.7634
v 0.460938 -0.703125 0.117188 0.8370 0.3267 0.7733
v -0.460938 -0.703125 0.117188 0.6109 0.3267 0.7733
v 0.546875 -0.671875 0.210938 0.8543 0.3583 0.8019
v -0.546875 -0.671875 0.210938 0.5838 0.3583 0.8019
v 0.554688 -0.671875 0.281250 0.8558 0.3583 0.8226
v -0.554688 -0.671875 0.281250 0.5813 0.3583 0.8226
v 0.531250 -0.679688 0.335938 0.8512 0.3507 0.8382
v -0.531250 -0.679688 0.335938 0.5889 0.3507 0.8382
v 0.414062 -0.750000 0.390625 0.8274 0.2709 0.8534
v -0.414062 -0.750000 0.390625 0.6251 0.2709 0.8534
v 0.281250 -0.765625 0.398438 0.7994 0.2490 0.8556
v -0.281250 -0.765625 0.398438 0.6631 0.2490 0.8556
v 0.335938 -0.750000 0.406250 0.8111 0.2709 0.8577
v -0.335938 -0.750000 0.406250 0.6478 0.2709 0.8577
v 0.203125 -0.750000 0.171875 0.7823 0.2709 0.7901
v -0.203125 -0.750000 0.171875 0.6841 0.2709 0.7901
v 0.195312 -0.750000 0.226562 0.7805 0.2709 0.8066
v -0.195312 -0.750000 0.226562 0.6862 0.2709 0.8066
v 0.109375 -0.609375 0.460938 0.7611 0.4131 0.8725
v -0.109375 -0.609375 0.460938 0.7084 0.4131 0.8725
v 0.195312 -0.617188 0.664062 0.7805 0.4067 0.9247
v -0.195312 -0.617188 0.664062 0.6862 0.4067 0.9247
v 0.335938 -0.593750 0.687500 0.8111 0.4254 0.9305
v -0.335938 -0.593750 0.687500 0.6478 0.4254 0.9305
v 0.484375 -0.554688 0.554688 0.8418 0.4545 0.8971
v -0.484375 -0.554688 0.554688 0.6037 0.4545 0.8971
v 0.679688 -0.492188 0.453125 0.8800 0.4967 0.8704
v -0.679688 -0.492188 0.453125 0.5385 0.4967 0.8704
v 0.796875 -0.460938 0.406250 0.9020 0.5162 0.8577
v -0.796875 -0.460938 0.406250 0.4940 0.5162 0.8577
v 0.773438 -0.375000 0.164062 0.8977 0.5656 0.7878
v -0.773438 -0.375000 0.164062 0.5033 0.5656 0.7878
v 0.601562 -0.414062 0.000000 0.8650 0.5439 0.7353
v -0.601562 -0.414062 0.000000 0.5657 0.5439 0.7353
v 0.437500 -0.468750 -0.093750 0.8323 0.5114 0.7031
v -0.437500 -0.468750 -0.093750 0.6181 0.5114 0.7031
v 0.000000 -0.289062 0.898438 0.7353 0.6100 0.9805
v 0.000000 0.078125 0.984375 0.7353 0.7648 1.0000
v 0.000000 0.671875 -0.195312 0.7353 0.9521 0.6658
v 0.000000 -0.187500 -0.460938 0.7353 0.6576 0.5525
v 0.000000 -0.460938 -0.976562 0.7353 0.5162 0.0504
v 0.000000 -0.343750 -0.804688 0.7353 0.5822 0.3341
v 0.000000 -0.320312 -0.570312 0.7353 0.5943 0.4959
v 0.000000 -0.281250 -0.484375 0.7353 0.6138 0.5410
v 0.851562 -0.054688 0.234375 0.9120 0.7138 0.8089
v -0.851562 -0.054688 0.234375 0.4715 0.7138 0.8089
v 0.859375 0.046875 0.320312 0.9134 0.7532 0.8338
v -0.859375 0.046875 0.320312 0.4681 0.7532 0.8338
v 0.773438 0.437500 0.265625 0.8977 0.8844 0.8180
v -0.773438 0.437500 0.265625 0.5033 0.8844 0.8180
v 0.460938 0.703125 0.437500 0.8370 0.9606 0.8662
v -0.460938 0.703125 0.437500 0.6109 0.9606 0.8662
v 0.734375 -0.070312 -0.046875 0.8904 0.7075 0.7194
v -0.734375 -0.070312 -0.046875 0.5183 0.7075 0.7194
v 0.593750 0.164062 -0.125000 0.8635 0.7955 0.6919
v -0.593750 0.164062 -0.125000 0.5683 0.7955 0.6919
v 0.640625 0.429688 -0.007812 0.8726 0.8820 0.7327
v -0.640625 0.429688 -0.007812 0.5524 0.8820 0.7327
v 0.335938 0.664062 0.054688 0.8111 0.9499 0.7533
v -0.335938 0.664062 0.054688 0.6478 0.9499 0.7533
v 0.234375 -0.406250 -0.351562 0.7892 0.5483 0.6025
v -0.234375 -0.406250 -0.351562 0.6758 0.5483 0.6025
v 0.179688 -0.257812 -0.414062 0.7771 0.6252 0.5746
v -0.179688 -0.257812 -0.414062 0.6903 0.6252 0.5746
v 0.289062 -0.382812 -0.710938 0.8011 0.5613 0.4085
v -0.289062 -0.382812 -0.710938 0.6609 0.5613 0.4085
v 0.250000 -0.390625 -0.500000 0.7926 0.5570 0.5332
v -0.250000 -0.390625 -0.500000 0.6716 0.5570 0.5332
v 0.328125 -0.398438 -0.914062 0.8094 0.5527 0.2082
v -0.328125 -0.398438 -0.914062 0.6500 0.5527 0.2082
v 0.140625 -0.367188 -0.757812 0.7682 0.5698 0.3735
v -0.140625 -0.367188 -0.757812 0.7004 0.5698 0.3735
v 0.125000 -0.359375 -0.539062 0.7647 0.5739 0.5129
v -0.125000 -0.359375 -0.539062 0.7044 0.5739 0.5129
v 0.164062 -0.437500 -0.945312 0.7735 0.5303 0.1510
v -0.164062 -0.437500 -0.945312 0.6944 0.5303 0.1510
v 0.218750 -0.429688 -0.281250 0.7857 0.5348 0.6321
v -0.218750 -0.429688 -0.281250 0.6800 0.5348 0.6321
v 0.210938 -0.468750 -0.226562 0.7840 0.5114 0.6538
v -0.210938 -0.468750 -0.226562 0.6821 0.5114 0.6538
v 0.203125 -0.500000 -0.171875 0.7823 0.4917 0.6747
v -0.203125 -0.500000 -0.171875 0.6841 0.4917 0.6747
v 0.210938 -0.164062 -0.390625 0.7840 0.6680 0.5852
v -0.210938 -0.164062 -0.390625 0.6821 0.6680 0.5852
v 0.296875 0.265625 -0.312500 0.8028 0.8300 0.6191
v -0.296875 0.265625 -0.312500 0.6588 0.8300 0.6191
v 0.343750 0.539062 -0.148438 0.8127 0.9145 0.6833
v -0.343750 0.539062 -0.148438 0.6456 0.9145 0.6833
v 0.453125 0.382812 0.867188 0.8354 0.8675 0.9733
v -0.453125 0.382812 0.867188 0.6133 0.8675 0.9733
v 0.453125 0.070312 0.929688 0.8354 0.7619 0.9877
v -0.453125 0.070312 0.929688 0.6133 0.7619 0.9877
v 0.453125 -0.234375 0.851562 0.8354 0.6362 0.9697
v -0.453125 -0.234375 0.851562 0.6133 0.6362 0.9697
v 0.460938 -0.429688 0.523438 0.8370 0.5348 0.8890
v -0.460938 -0.429688 0.523438 0.6109 0.5348 0.8890
v 0.726562 -0.335938 0.406250 0.8889 0.5862 0.8577
v -0.726562 -0.335938 0.406250 0.5213 0.5862 0.8577
v 0.632812 -0.281250 0.453125 0.8711 0.6138 0.8704
v -0.632812 -0.281250 0.453125 0.5551 0.6138 0.8704
v 0.640625 -0.054688 0.703125 0.8726 0.7138 0.9343
v -0.640625 -0.054688 0.703125 0.5524 0.7138 0.9343
v 0.796875 -0.125000 0.562500 0.9020 0.6848 0.8991
v -0.796875 -0.125000 0.562500 0.4940 0.6848 0.8991
v 0.796875 0.117188 0.617188 0.9020 0.7789 0.9130
v -0.796875 0.117188 0.617188 0.4940 0.7789 0.9130
v 0.640625 0.195312 0.750000 0.8726 0.8063 0.9457
v -0.640625 0.195312 0.750000 0.5524 0.8063 0.9457
v 0.640625 0.445312 0.679688 0.8726 0.8867 0.9286
v -0.640625 0.445312 0.679688 0.5524 0.8867 0.9286
v 0.796875 0.359375 0.539062 0.9020 0.8602 0.8931
v -0.796875 0.359375 0.539062 0.4940 0.8602 0.8931
v 0.617188 0.585938 0.328125 0.8680 0.9280 0.8360
v -0.617188 0.585938 0.328125 0.5604 0.9280 0.8360
v 0.484375 0.546875 0.023438 0.8418 0.9168 0.7431
v -0.484375 0.546875 0.023438 0.6037 0.9168 0.7431
v 0.820312 0.203125 0.328125 0.9063 0.8090 0.8360
v -0.820312 0.203125 0.328125 0.4845 0.8090 0.8360
v 0.406250 -0.148438 -0.171875 0.8258 0.6748 0.6747
v -0.406250 -0.148438 -0.171875 0.6275 0.6748 0.6747
v 0.429688 0.210938 -0.195312 0.8306 0.8117 0.6658
v -0.429688 0.210938 -0.195312 0.6204 0.8117 0.6658
v 0.890625 0.234375 0.406250 0.9191 0.8196 0.8577
v -0.890625 0.234375 0.406250 0.4545 0.8196 0.8577
v 0.773438 0.125000 -0.140625 0.8977 0.7817 0.6862
v -0.773438 0.125000 -0.140625 0.5033 0.7817 0.6862
v 1.039062 0.328125 -0.101562 0.9452 0.8503 0.7003
v -1.039062 0.328125 -0.101562 0.3811 0.8503 0.7003
v 1.281250 0.429688 0.054688 0.9860 0.8820 0.7533
v -1.281250 0.429688 0.054688 0.1945 0.8820 0.7533
v 1.351562 0.421875 0.320312 0.9975 0.8796 0.8338
v -1.351562 0.421875 0.320312 0.0677 0.8796 0.8338
v 1.234375 0.421875 0.507812 0.9783 0.8796 0.8849
v -1.234375 0.421875 0.507812 0.2442 0.8796 0.8849
v 1.023438 0.312500 0.476562 0.9425 0.8453 0.8767
v -1.023438 0.312500 0.476562 0.3896 0.8453 0.8767
v 1.015625 0.289062 0.414062 0.9412 0.8377 0.8598
v -1.015625 0.289062 0.414062 0.3938 0.8377 0.8598
v 1.187500 0.390625 0.437500 0.9705 0.8700 0.8662
v -1.187500 0.390625 0.437500 0.2843 0.8700 0.8662
v 1.265625 0.406250 0.289062 0.9835 0.8748 0.8248
v -1.265625 0.406250 0.289062 0.2125 0.8748 0.8248
v 1.210938 0.406250 0.078125 0.9744 0.8748 0.7609
v -1.210938 0.406250 0.078125 0.2651 0.8748 0.7609
v 1.031250 0.304688 -0.039062 0.9439 0.8427 0.7221
v -1.031250 0.304688 -0.039062 0.3854 0.8427 0.7221
v 0.828125 0.132812 -0.070312 0.9077 0.7845 0.7113
v -0.828125 0.132812 -0.070312 0.4813 0.7845 0.7113
v 0.921875 0.218750 0.359375 0.9246 0.8143 0.8448
v -0.921875 0.218750 0.359375 0.4403 0.8143 0.8448
v 0.945312 0.289062 0.304688 0.9288 0.8377 0.8293
v -0.945312 0.289062 0.304688 0.4292 0.8377 0.8293
v 0.882812 0.210938 -0.023438 0.9176 0.8117 0.7274
v -0.882812 0.210938 -0.023438 0.4580 0.8117 0.7274
v 1.039062 0.367188 -0.000000 0.9452 0.8627 0.7353
v -1.039062 0.367188 -0.000000 0.3811 0.8627 0.7353
v 1.187500 0.445312 0.093750 0.9705 0.8867 0.7659
v -1.187500 0.445312 0.093750 0.2843 0.8867 0.7659
v 1.234375 0.445312 0.250000 0.9783 0.8867 0.8135
v -1.234375 0.445312 0.250000 0.2442 0.8867 0.8135
v 1.171875 0.437500 0.359375 0.9679 0.8844 0.8448
v -1.171875 0.437500 0.359375 0.2963 0.8844 0.8448
v 1.023438 0.359375 0.343750 0.9425 0.8602 0.8404
v -1.023438 0.359375 0.343750 0.3896 0.8602 0.8404
v 0.843750 0.210938 0.289062 0.9106 0.8117 0.8248
v -0.843750 0.210938 0.289062 0.4748 0.8117 0.8248
v 0.835938 0.273438 0.171875 0.9092 0.8326 0.7901
v -0.835938 0.273438 0.171875 0.4781 0.8326 0.7901
v 0.757812 0.273438 0.093750 0.8948 0.8326 0.7659
v -0.757812 0.273438 0.093750 0.5094 0.8326 0.7659
v 0.820312 0.273438 0.085938 0.9063 0.8326 0.7634
v -0.820312 0.273438 0.085938 0.4845 0.8326 0.7634
v 0.843750 0.273438 0.015625 0.9106 0.8326 0.7405
v -0.843750 0.273438 0.015625 0.4748 0.8326 0.7405
v 0.812500 0.273438 -0.015625 0.9049 0.8326 0.7301
v -0.812500 0.273438 -0.015625 0.4877 0.8326 0.7301
v 0.726562 0.070312 -0.000000 0.8889 0.7619 0.7353
v -0.726562 0.070312 -0.000000 0.5213 0.7619 0.7353
v 0.718750 0.171875 -0.023438 0.8874 0.7982 0.7274
v -0.718750 0.171875 -0.023438 0.5242 0.7982 0.7274
v 0.718750 0.187500 0.039062 0.8874 0.8037 0.7483
v -0.718750 0.187500 0.039062 0.5242 0.8037 0.7483
v 0.796875 0.210938 0.203125 0.9020 0.8117 0.7996
v -0.796875 0.210938 0.203125 0.4940 0.8117 0.7996
v 0.890625 0.265625 0.242188 0.9191 0.8300 0.8112
v -0.890625 0.265625 0.242188 0.4545 0.8300 0.8112
v 0.890625 0.320312 0.234375 0.9191 0.8478 0.8089
v -0.890625 0.320312 0.234375 0.4545 0.8478 0.8089
v 0.812500 0.320312 -0.015625 0.9049 0.8478 0.7301
v -0.812500 0.320312 -0.015625 0.4877 0.8478 0.7301
v 0.851562 0.320312 0.015625 0.9120 0.8478 0.7405
v -0.851562 0.320312 0.015625 0.4715 0.8478 0.7405
v 0.828125 0.320312 0.078125 0.9077 0.8478 0.7609
v -0.828125 0.320312 0.078125 0.4813 0.8478 0.7609
v 0.765625 0.320312 0.093750 0.8962 0.8478 0.7659
v -0.765625 0.320312 0.093750 0.5064 0.8478 0.7659
v 0.843750 0.320312 0.171875 0.9106 0.8478 0.7901
v -0.843750 0.320312 0.171875 0.4748 0.8478 0.7901
v 1.039062 0.414062 0.328125 0.9452 0.8772 0.8360
v -1.039062 0.414062 0.328125 0.3811 0.8772 0.8360
v 1.187500 0.484375 0.343750 0.9705 0.8984 0.8404
v -1.187500 0.484375 0.343750 0.2843 0.8984 0.8404
v 1.257812 0.492188 0.242188 0.9822 0.9008 0.8112
v -1.257812 0.492188 0.242188 0.2209 0.9008 0.8112
v 1.210938 0.484375 0.085938 0.9744 0.8984 0.7634
v -1.210938 0.484375 0.085938 0.2651 0.8984 0.7634
v 1.046875 0.421875 -0.000000 0.9466 0.8796 0.7353
v -1.046875 0.421875 -0.000000 0.3767 0.8796 0.7353
v 0.882812 0.265625 -0.015625 0.9176 0.8300 0.7301
v -0.882812 0.265625 -0.015625 0.4580 0.8300 0.7301
v 0.953125 0.343750 0.289062 0.9302 0.8553 0.8248
v -0.953125 0.343750 0.289062 0.4255 0.8553 0.8248
v 0.890625 0.328125 0.109375 0.9191 0.8503 0.7708
v -0.890625 0.328125 0.109375 0.4545 0.8503 0.7708
v 0.937500 0.335938 0.062500 0.9274 0.8528 0.7559
v -0.937500 0.335938 0.062500 0.4330 0.8528 0.7559
v 1.000000 0.367188 0.125000 0.9384 0.8627 0.7757
v -1.000000 0.367188 0.125000 0.4020 0.8627 0.7757
v 0.960938 0.351562 0.171875 0.9316 0.8577 0.7901
v -0.960938 0.351562 0.171875 0.4217 0.8577 0.7901
v 1.015625 0.375000 0.234375 0.9412 0.8651 0.8089
v -1.015625 0.375000 0.234375 0.3938 0.8651 0.8089
v 1.054688 0.382812 0.187500 0.9479 0.8675 0.7949
v -1.054688 0.382812 0.187500 0.3723 0.8675 0.7949
v 1.109375 0.390625 0.210938 0.9573 0.8700 0.8019
v -1.109375 0.390625 0.210938 0.3394 0.8700 0.8019
v 1.085938 0.390625 0.273438 0.9533 0.8700 0.8203
v -1.085938 0.390625 0.273438 0.3539 0.8700 0.8203
v 1.023438 0.484375 0.437500 0.9425 0.8984 0.8662
v -1.023438 0.484375 0.437500 0.3896 0.8984 0.8662
v 1.250000 0.546875 0.468750 0.9809 0.9168 0.8746
v -1.250000 0.546875 0.468750 0.2290 0.9168 0.8746
v 1.367188 0.500000 0.296875 1.0000 0.9031 0.8271
v -1.367188 0.500000 0.296875 0.0000 0.9031 0.8271
v 1.312500 0.531250 0.054688 0.9911 0.9122 0.7533
v -1.312500 0.531250 0.054688 0.1517 0.9122 0.7533
v 1.039062 0.492188 -0.085938 0.9452 0.9008 0.7058
v -1.039062 0.492188 -0.085938 0.3811 0.9008 0.7058
v 0.789062 0.328125 -0.125000 0.9006 0.8503 0.6919
v -0.789062 0.328125 -0.125000 0.4971 0.8503 0.6919
v 0.859375 0.382812 0.382812 0.9134 0.8675 0.8513
v -0.859375 0.382812 0.382812 0.4681 0.8675 0.8513
vn 0.9777 -0.2098 -0.0110
vn 0.7277 -0.2051 -0.6545
vn 0.6040 -0.6122 -0.5102
vn 0.8021 -0.5972 -0.0034
vn -0.6040 -0.6122 -0.5102
vn -0.7277 -0.2051 -0.6545
vn -0.9777 -0.2098 -0.0110
vn -0.8021 -0.5972 -0.0034
vn 0.6830 -0.4836 -0.5475
vn 0.8684 -0.4958 -0.0033
vn -0.6830 -0.4836 -0.5475
vn -0.8684 -0.4958 -0.0033
vn 0.0982 -0.6530 -0.7510
vn 0.1159 -0.4847 -0.8670
vn -0.1159 -0.4847 -0.8670
vn -0.0982 -0.6530 -0.7510
vn 0.0375 -0.2593 -0.9651
vn -0.0375 -0.2593 -0.9651
vn -0.6553 -0.3008 -0.6928
vn -0.4514 -0.7109 -0.5393
vn 0.4514 -0.7109 -0.5393
vn 0.6554 -0.3008 -0.6928
vn -0.5512 -0.5402 -0.6358
vn 0.5512 -0.5402 -0.6358
vn -0.6940 -0.7200 -0.0035
vn -0.8148 -0.5797 -0.0038
vn 0.8148 -0.5797 -0.0038
vn 0.6940 -0.7200 -0.0035
vn -0.9461 -0.3237 -0.0129
vn 0.9461 -0.3237 -0.0129
vn -0.6622 -0.2889 0.6914
vn -0.4551 -0.7191 0.5251
vn 0.4551 -0.7191 0.5251
vn 0.6622 -0.2889 0.6914
vn -0.5298 -0.5716 0.6266
vn 0.5298 -0.5716 0.6266
vn 0.1019 -0.6647 0.7402
vn 0.1224 -0.5328 0.8373
vn -0.1224 -0.5328 0.8373
vn -0.1019 -0.6647 0.7402
vn 0.0321 -0.2369 0.9710
vn -0.0321 -0.2369 0.9710
vn 0.7321 -0.1950 0.6527
vn 0.6085 -0.6203 0.4949
vn -0.6085 -0.6203 0.4949
vn -0.7321 -0.1950 0.6527
vn 0.6722 -0.5084 0.5381
vn -0.6722 -0.5084 0.5381
vn 0.7220 -0.2374 0.6499
vn 0.9738 -0.2273 -0.0122
vn -0.7220 -0.2374 0.6499
vn -0.9738 -0.2273 -0.0122
vn 0.0374 -0.3564 0.9336
vn -0.0374 -0.3564 0.9336
vn -0.6264 -0.4347 0.6470
vn 0.6264 -0.4347 0.6470
vn -0.9113 -0.4116 -0.0123
vn 0.9113 -0.4116 -0.0123
vn -0.6182 -0.4364 -0.6538
vn 0.6182 -0.4364 -0.6538
vn 0.0369 -0.3524 -0.9351
vn -0.0369 -0.3524 -0.9351
vn 0.7151 -0.2391 -0.6569
vn -0.7151 -0.2391 -0.6569
vn 0.1836 -0.9830 -0.0053
vn -0.1836 -0.9830 -0.0053
vn 0.1576 -0.1596 -0.9745
vn 0.1679 -0.6357 -0.7535
vn -0.0000 -0.6103 -0.7922
vn -0.0000 -0.2098 -0.9777
vn -0.1679 -0.6357 -0.7535
vn -0.1576 -0.1596 -0.9745
vn 0.6541 -0.1480 -0.7418
vn 0.3630 -0.6970 -0.6184
vn -0.3630 -0.6970 -0.6184
vn -0.6541 -0.1480 -0.7418
vn 0.9696 -0.1954 -0.1473
vn 0.5559 -0.8027 -0.2160
vn -0.5559 -0.8027 -0.2160
vn -0.9696 -0.1954 -0.1473
vn 0.9758 -0.1970 0.0949
vn 0.5679 -0.8225 -0.0330
vn -0.5679 -0.8225 -0.0330
vn -0.9758 -0.1970 0.0949
vn 0.9651 -0.1435 0.2190
vn 0.5872 -0.8017 0.1120
vn -0.5872 -0.8017 0.1120
vn -0.9651 -0.1435 0.2190
vn 0.9053 -0.1703 -0.3891
vn 0.3606 -0.0455 -0.9316
vn 0.3809 -0.7662 -0.5176
vn 0.0663 -0.9790 -0.1929
vn -0.3809 -0.7662 -0.5176
vn -0.3606 -0.0455 -0.9316
vn -0.9053 -0.1703 -0.3891
vn -0.0663 -0.9790 -0.1929
vn 0.5889 -0.1668 -0.7908
vn 0.4988 -0.7683 -0.4012
vn -0.4988 -0.7683 -0.4012
vn -0.5889 -0.1668 -0.7908
vn 0.9126 0.0698 -0.4027
vn 0.5489 -0.7694 -0.3266
vn -0.5489 -0.7694 -0.3266
vn -0.9126 0.0698 -0.4027
vn 0.8801 -0.2138 0.4239
vn 0.4876 -0.8606 -0.1471
vn -0.4876 -0.8606 -0.1471
vn -0.8801 -0.2138 0.4239
vn 0.5100 -0.2144 0.8330
vn 0.3417 -0.9393 -0.0325
vn -0.3417 -0.9393 -0.0325
vn -0.5100 -0.2144 0.8330
vn 0.5978 -0.1683 0.7838
vn 0.3141 -0.9489 -0.0304
vn -0.3141 -0.9489 -0.0304
vn -0.5978 -0.1683 0.7838
vn 0.2283 -0.1689 0.9588
vn 0.2711 -0.9387 0.2130
vn -0.2711 -0.9387 0.2130
vn -0.2283 -0.1689 0.9588
vn -0.5987 -0.1930 0.7774
vn -0.1643 -0.9735 0.1591
vn 0.1643 -0.9735 0.1591
vn 0.5987 -0.1930 0.7774
vn -0.7918 -0.1826 0.5829
vn -0.0730 -0.9969 -0.0287
vn 0.0730 -0.9969 -0.0287
vn 0.7918 -0.1826 0.5829
vn -0.0000 -0.2816 0.9595
vn -0.0000 -0.9997 -0.0241
vn 0.2654 -0.9423 -0.2040
vn 0.2660 -0.9557 -0.1257
vn -0.2660 -0.9557 -0.1257
vn -0.2654 -0.9423 -0.2040
vn 0.1334 -0.9863 -0.0975
vn -0.1334 -0.9863 -0.0975
vn 0.1978 -0.9802 -0.0105
vn -0.1978 -0.9802 -0.0105
vn 0.2414 -0.9207 -0.3067
vn -0.2414 -0.9207 -0.3067
vn 0.3630 -0.9073 -0.2123
vn -0.3630 -0.9073 -0.2123
vn 0.4415 -0.8733 -0.2059
vn -0.4415 -0.8733 -0.2059
vn 0.4195 -0.8245 -0.3797
vn -0.4195 -0.8245 -0.3797
vn 0.3106 -0.8875 -0.3403
vn -0.3106 -0.8875 -0.3403
vn -0.1350 -0.9673 -0.2146
vn 0.1350 -0.9673 -0.2146
vn -0.3104 -0.9353 -0.1698
vn -0.0000 -0.9999 0.0135
vn 0.3104 -0.9353 -0.1698
vn 0.0284 -0.9797 -0.1986
vn -0.0284 -0.9797 -0.1986
vn -0.0000 -0.9747 -0.2235
vn -0.1624 -0.9663 -0.1998
vn 0.1624 -0.9663 -0.1998
vn -0.0252 -0.9109 -0.4118
vn -0.0000 -0.9435 -0.3313
vn 0.0252 -0.9109 -0.4118
vn 0.0891 -0.9422 -0.3229
vn -0.0891 -0.9422 -0.3229
vn 0.1559 -0.9729 -0.1707
vn -0.1559 -0.9729 -0.1707
vn 0.1386 -0.9903 0.0029
vn 0.1803 -0.9819 -0.0579
vn -0.1803 -0.9819 -0.0579
vn -0.1386 -0.9903 0.0029
vn 0.4969 -0.7506 -0.4356
vn -0.0000 -0.8892 -0.4576
vn -0.0000 -1.0000 -0.0041
vn -0.4969 -0.7506 -0.4356
vn -0.0000 -0.9994 -0.0342
vn -0.0000 -0.9048 -0.4257
vn 0.7216 -0.5886 -0.3646
vn 0.9246 -0.3159 -0.2129
vn 0.5803 -0.3597 -0.7307
vn -0.5803 -0.3597 -0.7307
vn -0.9246 -0.3159 -0.2129
vn -0.7216 -0.5886 -0.3646
vn 0.2528 -0.9028 0.3479
vn 0.6218 -0.1168 0.7744
vn -0.6218 -0.1168 0.7744
vn -0.2528 -0.9028 0.3479
vn -0.0000 -0.8221 0.5693
vn -0.3018 -0.1492 0.9416
vn 0.3018 -0.1492 0.9416
vn -0.0000 -0.6508 0.7593
vn -0.0000 -0.6194 0.7851
vn -0.0000 -0.5146 -0.8574
vn 0.2206 -0.7958 -0.5640
vn -0.0000 -0.8489 -0.5286
vn -0.2206 -0.7958 -0.5640
vn -0.0000 -0.9935 0.1136
vn -0.1992 -0.7734 0.6018
vn 0.1992 -0.7734 0.6018
vn 0.3664 -0.8000 0.4752
vn -0.3664 -0.8000 0.4752
vn 0.4297 -0.8838 -0.1850
vn -0.4297 -0.8838 -0.1850
vn 0.7431 -0.6686 0.0295
vn -0.7431 -0.6686 0.0295
vn 0.6464 -0.7496 0.1425
vn -0.6464 -0.7496 0.1425
vn 0.9385 -0.1161 0.3251
vn -0.9385 -0.1161 0.3251
vn 0.9534 -0.1079 0.2816
vn -0.9534 -0.1079 0.2816
vn -0.0000 -0.4294 -0.9031
vn -0.1140 -0.7802 -0.6151
vn 0.1140 -0.7802 -0.6151
vn -0.6503 -0.7572 0.0615
vn 0.6503 -0.7572 0.0615
vn -0.3705 -0.7521 0.5450
vn 0.3705 -0.7521 0.5450
vn -0.0000 -0.7627 0.6467
vn -0.3272 -0.8172 0.4745
vn -0.0000 -0.8487 0.5289
vn 0.3272 -0.8172 0.4745
vn -0.6749 -0.7290 0.1147
vn 0.6749 -0.7290 0.1147
vn -0.5164 -0.4874 -0.7041
vn 0.5164 -0.4874 -0.7041
vn -0.0000 -0.7153 -0.6989
vn -0.0170 -0.9980 -0.0610
vn 0.1649 -0.9822 -0.0897
vn 0.0170 -0.9980 -0.0610
vn -0.1649 -0.9822 -0.0897
vn 0.2359 -0.9657 -0.1089
vn -0.2359 -0.9657 -0.1089
vn 0.1634 -0.9830 -0.0836
vn -0.1634 -0.9830 -0.0836
vn 0.0129 -0.9877 -0.1560
vn -0.0129 -0.9877 -0.1560
vn 0.1998 -0.9577 -0.2072
vn -0.1998 -0.9577 -0.2072
vn 0.2858 -0.9573 -0.0425
vn -0.2858 -0.9573 -0.0425
vn 0.2990 -0.9497 -0.0934
vn -0.2990 -0.9497 -0.0934
vn 0.1870 -0.9802 -0.0655
vn -0.1870 -0.9802 -0.0655
vn 0.3063 -0.9513 0.0342
vn -0.3063 -0.9513 0.0342
vn 0.1731 -0.9786 -0.1109
vn -0.1731 -0.9786 -0.1109
vn 0.1657 -0.9797 0.1129
vn -0.1657 -0.9797 0.1129
vn 0.1829 -0.9825 0.0367
vn -0.1829 -0.9825 0.0367
vn 0.5010 -0.7756 -0.3839
vn 0.3063 -0.8879 -0.3432
vn -0.5010 -0.7756 -0.3839
vn -0.3063 -0.8879 -0.3432
vn 0.0021 -0.8687 -0.4953
vn -0.0021 -0.8687 -0.4953
vn -0.1401 -0.6322 -0.7621
vn 0.1401 -0.6322 -0.7621
vn -0.1943 -0.7633 -0.6161
vn 0.1943 -0.7633 -0.6161
vn -0.3549 -0.9260 -0.1286
vn 0.3549 -0.9260 -0.1286
vn -0.2549 -0.9406 0.2241
vn 0.2549 -0.9406 0.2241
vn -0.0831 -0.8365 0.5416
vn 0.0831 -0.8365 0.5416
vn 0.1489 -0.7755 0.6135
vn -0.1489 -0.7755 0.6135
vn 0.4245 -0.7108 0.5609
vn -0.4245 -0.7108 0.5609
vn 0.6875 -0.6625 0.2974
vn -0.6875 -0.6625 0.2974
vn 0.7465 -0.6303 -0.2135
vn -0.7465 -0.6303 -0.2135
vn 0.8052 -0.5928 0.0150
vn -0.8052 -0.5928 0.0150
vn -0.5046 -0.0448 0.8622
vn -0.0000 -0.4760 0.8794
vn 0.5046 -0.0448 0.8622
vn -0.4770 0.7158 0.5100
vn 0.4770 0.7158 0.5100
vn 0.1146 0.7464 0.6555
vn -0.1146 0.7464 0.6555
vn 0.3084 0.2642 0.9138
vn -0.3084 0.2642 0.9138
vn 0.3515 0.2249 0.9088
vn -0.3515 0.2249 0.9088
vn 0.7392 0.3049 0.6005
vn -0.7392 0.3049 0.6005
vn 0.9393 0.1533 -0.3068
vn -0.9393 0.1533 -0.3068
vn 0.5768 0.0972 -0.8111
vn -0.5768 0.0972 -0.8111
vn 0.4394 0.1016 -0.8925
vn -0.4394 0.1016 -0.8925
vn -0.0000 0.9482 -0.3178
vn -0.0000 0.5931 -0.8051
vn 0.7260 0.3591 -0.5865
vn 0.3375 0.9066 -0.2535
vn -0.7260 0.3591 -0.5865
vn -0.3375 0.9066 -0.2535
vn -0.0000 0.9546 -0.2978
vn 0.1293 0.9753 -0.1789
vn -0.1293 0.9753 -0.1789
vn -0.0000 0.5255 -0.8508
vn 0.0993 0.6328 -0.7680
vn -0.0993 0.6328 -0.7680
vn 0.5587 0.6848 -0.4679
vn -0.5587 0.6848 -0.4679
vn 0.6058 0.7953 0.0208
vn -0.6058 0.7953 0.0208
vn 0.7766 0.6299 -0.0093
vn -0.7766 0.6299 -0.0093
vn 0.9602 0.2794 -0.0017
vn -0.9602 0.2794 -0.0017
vn 0.9731 -0.0002 -0.2302
vn 0.9537 -0.2247 -0.1999
vn -0.9537 -0.2247 -0.1999
vn -0.9731 -0.0002 -0.2302
vn 0.8140 -0.1732 -0.5544
vn -0.8140 -0.1732 -0.5544
vn -0.0000 0.9538 -0.3005
vn 0.4237 0.8459 -0.3240
vn 0.5191 0.5483 -0.6556
vn -0.0000 0.7174 -0.6967
vn -0.5191 0.5483 -0.6556
vn -0.4237 0.8459 -0.3240
vn 0.5214 0.2162 -0.8255
vn -0.0000 0.3385 -0.9410
vn -0.5214 0.2162 -0.8255
vn 0.5888 0.0185 -0.8081
vn -0.0000 0.1650 -0.9863
vn -0.5888 0.0185 -0.8081
vn 0.7152 -0.0736 -0.6950
vn 0.9762 -0.0787 -0.2020
vn -0.7152 -0.0736 -0.6950
vn -0.9762 -0.0787 -0.2020
vn -0.0000 0.9494 0.3141
vn 0.4534 0.8693 0.1969
vn -0.4534 0.8693 0.1969
vn -0.0000 -0.5627 0.8267
vn 0.4611 -0.4990 0.7338
vn 0.4198 -0.0349 0.9070
vn -0.0000 -0.0232 0.9997
vn -0.4198 -0.0349 0.9070
vn -0.4611 -0.4990 0.7338
vn 0.4258 0.4166 0.8032
vn -0.0000 0.5539 0.8326
vn -0.4258 0.4166 0.8032
vn 0.7652 -0.1565 0.6244
vn 0.4721 -0.4150 0.7778
vn -0.7652 -0.1565 0.6244
vn -0.4721 -0.4150 0.7778
vn 0.7475 -0.3969 0.5326
vn 0.6514 -0.3336 0.6815
vn -0.7475 -0.3969 0.5326
vn -0.6514 -0.3336 0.6815
vn 0.8548 0.0301 0.5181
vn 0.6788 0.0612 0.7318
vn -0.8548 0.0301 0.5181
vn -0.6788 0.0612 0.7318
vn 0.8739 0.3769 0.3070
vn 0.6441 0.5438 0.5380
vn -0.8739 0.3769 0.3070
vn -0.6441 0.5438 0.5380
vn 0.6260 0.7794 -0.0260
vn 0.5860 0.8101 -0.0155
vn -0.5860 0.8101 -0.0155
vn -0.6260 0.7794 -0.0260
vn 0.3916 -0.4012 0.8280
vn -0.3916 -0.4012 0.8280
vn -0.0000 -0.7843 0.6204
vn 0.9989 -0.0062 -0.0455
vn -0.9989 -0.0062 -0.0455
vn 0.8965 -0.3220 0.3044
vn -0.8965 -0.3220 0.3044
vn 0.5809 0.1464 -0.8007
vn 0.5731 -0.1600 -0.8037
vn -0.5809 0.1464 -0.8007
vn -0.5731 -0.1600 -0.8037
vn 0.2744 0.0552 -0.9600
vn -0.2744 0.0552 -0.9600
vn 0.4020 0.6768 -0.6167
vn 0.5443 0.6766 -0.4959
vn -0.5443 0.6766 -0.4959
vn -0.4020 0.6768 -0.6167
vn 0.0163 -0.4863 0.8736
vn -0.2878 -0.6094 0.7388
vn 0.4590 -0.8862 -0.0631
vn 0.5421 -0.8376 -0.0674
vn -0.4590 -0.8862 -0.0631
vn 0.2878 -0.6094 0.7388
vn -0.0163 -0.4863 0.8736
vn -0.5421 -0.8376 -0.0674
vn 0.3174 -0.9437 -0.0930
vn 0.3604 -0.3600 0.8605
vn -0.3174 -0.9437 -0.0930
vn -0.3604 -0.3600 0.8605
vn -0.1201 -0.9887 -0.0897
vn 0.7896 -0.5870 0.1790
vn 0.1201 -0.9887 -0.0897
vn -0.7896 -0.5870 0.1790
vn -0.0240 -0.9614 0.2740
vn 0.6731 -0.5450 -0.4998
vn 0.0240 -0.9614 0.2740
vn -0.6731 -0.5450 -0.4998
vn 0.4922 -0.8263 0.2738
vn 0.4719 -0.4117 -0.7796
vn -0.4922 -0.8263 0.2738
vn -0.4719 -0.4117 -0.7796
vn 0.3413 -0.8713 0.3527
vn -0.0439 -0.7602 -0.6482
vn -0.3413 -0.8713 0.3527
vn 0.0439 -0.7602 -0.6482
vn -0.1665 -0.2497 0.9539
vn 0.2330 -0.4164 0.8788
vn -0.2330 -0.4164 0.8788
vn 0.1665 -0.2497 0.9539
vn -0.7613 -0.0399 0.6471
vn 0.7613 -0.0399 0.6471
vn -0.9810 -0.1698 -0.0934
vn 0.9810 -0.1698 -0.0934
vn -0.1410 -0.6188 -0.7728
vn 0.1410 -0.6188 -0.7728
vn 0.5587 -0.5044 -0.6583
vn -0.5587 -0.5044 -0.6583
vn 0.6878 -0.4698 -0.5533
vn -0.6878 -0.4698 -0.5533
vn 0.7451 -0.6615 0.0855
vn 0.8615 0.1400 -0.4880
vn -0.7451 -0.6615 0.0855
vn -0.8615 0.1400 -0.4880
vn 0.7427 -0.6166 -0.2611
vn -0.7427 -0.6166 -0.2611
vn 0.5933 -0.5720 0.5663
vn -0.5933 -0.5720 0.5663
vn 0.8837 -0.4639 -0.0625
vn 0.9210 -0.3480 -0.1749
vn -0.9210 -0.3480 -0.1749
vn -0.8837 -0.4639 -0.0625
vn 0.8589 -0.5108 0.0371
vn 0.5731 -0.3796 0.7263
vn -0.8589 -0.5108 0.0371
vn -0.5731 -0.3796 0.7263
vn 0.7481 -0.3224 -0.5799
vn 0.8720 -0.2446 -0.4240
vn -0.8720 -0.2446 -0.4240
vn -0.7481 -0.3224 -0.5799
vn 0.6963 -0.4714 -0.5412
vn -0.6963 -0.4714 -0.5412
vn 0.6669 -0.6052 -0.4348
vn 0.6358 -0.6545 -0.4092
vn -0.6669 -0.6052 -0.4348
vn -0.6358 -0.6545 -0.4092
vn 0.5714 -0.7015 -0.4259
vn -0.5714 -0.7015 -0.4259
vn 0.7837 -0.5680 0.2514
vn -0.7837 -0.5680 0.2514
vn 0.4447 -0.8138 0.3740
vn -0.4447 -0.8138 0.3740
vn 0.3739 -0.8510 0.3687
vn -0.3739 -0.8510 0.3687
vn 0.6600 -0.6650 0.3495
vn -0.6600 -0.6650 0.3495
vn -0.0507 -0.3023 0.9519
vn 0.0507 -0.3023 0.9519
vn 0.4844 -0.8072 -0.3373
vn -0.4844 -0.8072 -0.3373
vn -0.2485 -0.7738 -0.5826
vn 0.2485 -0.7738 -0.5826
vn -0.7433 -0.6618 -0.0973
vn 0.7433 -0.6618 -0.0973
vn -0.5392 -0.7115 0.4506
vn 0.5392 -0.7115 0.4506
vn 0.0873 -0.6668 0.7401
vn -0.0873 -0.6668 0.7401
vn 0.3855 -0.9154 0.1162
vn 0.1984 -0.9801 0.0051
vn -0.3855 -0.9154 0.1162
vn -0.1984 -0.9801 0.0051
vn 0.4316 -0.9015 -0.0331
vn 0.3281 -0.9446 0.0002
vn -0.4316 -0.9015 -0.0331
vn -0.3281 -0.9446 0.0002
vn 0.3447 -0.9356 -0.0767
vn 0.3178 -0.9435 0.0937
vn -0.3447 -0.9356 -0.0767
vn -0.3178 -0.9435 0.0937
vn 0.4365 -0.8996 -0.0136
vn 0.3573 -0.8851 0.2980
vn -0.4365 -0.8996 -0.0136
vn -0.3573 -0.8851 0.2980
vn -0.0798 0.5283 -0.8453
vn -0.0419 0.7140 -0.6989
vn 0.0798 0.5283 -0.8453
vn 0.0419 0.7140 -0.6989
vn 0.6150 0.6174 -0.4906
vn -0.6150 0.6174 -0.4906
vn 0.9234 0.3741 0.0856
vn -0.9234 0.3741 0.0856
vn 0.3048 0.7214 0.6219
vn -0.3048 0.7214 0.6219
vn -0.4176 0.7166 0.5586
vn 0.4176 0.7166 0.5586
vn -0.6562 0.4927 0.5715
vn 0.6562 0.4927 0.5715
vt 0.843250 0.588863
vt 0.833697 0.611927
vt 0.794218 0.611927
vt 0.815334 0.560948
vt 0.866314 0.937441
vt 0.866314 0.897962
vt 0.889378 0.888409
vt 0.917293 0.916324
vt 0.746541 0.611927
vt 0.781622 0.527235
vt 0.866314 0.985118
vt 0.951006 0.950037
vt 0.815334 0.662907
vt 0.781622 0.696619
vt 0.781622 0.950037
vt 0.815334 0.916325
vt 0.843250 0.634991
vt 0.843250 0.888409
vt 0.866314 0.644544
vt 0.866314 0.684023
vt 0.794218 0.865345
vt 0.833697 0.865345
vt 0.866314 0.731700
vt 0.746541 0.865345
vt 0.917293 0.662907
vt 0.951006 0.696619
vt 0.781622 0.780653
vt 0.815334 0.814366
vt 0.889378 0.634991
vt 0.843250 0.842281
vt 0.898931 0.611927
vt 0.938410 0.611927
vt 0.866314 0.793249
vt 0.866314 0.832728
vt 0.986087 0.611927
vt 0.866314 0.745572
vt 0.917294 0.560947
vt 0.951006 0.527235
vt 0.951006 0.780653
vt 0.917294 0.814365
vt 0.889378 0.588863
vt 0.889378 0.842281
vt 0.866314 0.579310
vt 0.866314 0.539831
vt 0.938410 0.865345
vt 0.898931 0.865345
vt 0.866314 0.492154
vt 0.986087 0.865345
vt 0.866314 0.585461
vt 0.847600 0.593213
vt 0.892780 0.865345
vt 0.885028 0.884059
vt 0.885028 0.593213
vt 0.885028 0.846631
vt 0.892780 0.611927
vt 0.866314 0.838879
vt 0.885028 0.630641
vt 0.847600 0.846631
vt 0.866314 0.638393
vt 0.839848 0.865345
vt 0.847600 0.630641
vt 0.847600 0.884059
vt 0.839848 0.611927
vt 0.866314 0.891811
vt 0.866314 0.611927
vt 0.866314 0.865345
vt 0.520711 0.060503
vt 0.517028 0.068490
vt 0.500000 0.064527
vt 0.500000 0.054411
vt 0.482972 0.068490
vt 0.479289 0.060503
vt 0.530457 0.065062
vt 0.522612 0.070678
vt 0.477388 0.070678
vt 0.469543 0.065062
vt 0.532878 0.067822
vt 0.526301 0.079422
vt 0.473699 0.079422
vt 0.467122 0.067822
vt 0.544695 0.083023
vt 0.529228 0.091098
vt 0.470772 0.091098
vt 0.455305 0.083023
vt 0.565647 0.115495
vt 0.537536 0.127779
vt 0.462464 0.127779
vt 0.434353 0.115495
vt 0.586916 0.172042
vt 0.626605 0.208159
vt 0.600470 0.238288
vt 0.535885 0.215568
vt 0.399530 0.238288
vt 0.373395 0.208159
vt 0.413084 0.172042
vt 0.464115 0.215568
vt 0.650908 0.240294
vt 0.636962 0.261221
vt 0.363038 0.261221
vt 0.349092 0.240294
vt 0.689501 0.268805
vt 0.655896 0.284413
vt 0.344104 0.284413
vt 0.310499 0.268805
vt 0.684517 0.317795
vt 0.659507 0.313152
vt 0.340493 0.313152
vt 0.315483 0.317795
vt 0.671357 0.334694
vt 0.649107 0.322437
vt 0.350893 0.322437
vt 0.328643 0.334694
vt 0.636775 0.370732
vt 0.613636 0.353108
vt 0.386364 0.353108
vt 0.363225 0.370732
vt 0.602261 0.395588
vt 0.594178 0.371277
vt 0.405822 0.371277
vt 0.397739 0.395588
vt 0.581044 0.398468
vt 0.577351 0.373341
vt 0.422649 0.373341
vt 0.418956 0.398468
vt 0.532016 0.387365
vt 0.539817 0.354339
vt 0.460183 0.354339
vt 0.467984 0.387365
vt 0.500000 0.382860
vt 0.500000 0.340417
vt 0.559135 0.334326
vt 0.579057 0.335646
vt 0.420943 0.335646
vt 0.440865 0.334326
vt 0.592090 0.332885
vt 0.407910 0.332885
vt 0.606163 0.325516
vt 0.393837 0.325516
vt 0.628251 0.311636
vt 0.371749 0.311636
vt 0.635551 0.300507
vt 0.364449 0.300507
vt 0.631484 0.283889
vt 0.368516 0.283889
vt 0.611331 0.264411
vt 0.388669 0.264411
vt 0.592372 0.254897
vt 0.407628 0.254897
vt 0.559669 0.267717
vt 0.440331 0.267717
vt 0.550878 0.277832
vt 0.500000 0.252445
vt 0.449122 0.277832
vt 0.544001 0.314523
vt 0.455999 0.314523
vt 0.500000 0.295691
vt 0.543637 0.293371
vt 0.456363 0.293371
vt 0.506819 0.075382
vt 0.500000 0.073497
vt 0.493181 0.075382
vt 0.511782 0.080633
vt 0.488218 0.080633
vt 0.512172 0.093457
vt 0.487828 0.093457
vt 0.514257 0.133422
vt 0.513874 0.097191
vt 0.486126 0.097191
vt 0.485743 0.133422
vt 0.520226 0.164615
vt 0.500000 0.157864
vt 0.500000 0.134352
vt 0.479774 0.164615
vt 0.500000 0.100063
vt 0.500000 0.091346
vt 0.530258 0.180239
vt 0.521901 0.181560
vt 0.517666 0.172353
vt 0.482334 0.172353
vt 0.478099 0.181560
vt 0.469742 0.180239
vt 0.523673 0.198817
vt 0.518957 0.194728
vt 0.481043 0.194728
vt 0.476327 0.198817
vt 0.500000 0.203867
vt 0.508211 0.197295
vt 0.491789 0.197295
vt 0.500000 0.197278
vt 0.500000 0.192167
vt 0.500000 0.165170
vt 0.513538 0.176949
vt 0.500000 0.171718
vt 0.486462 0.176949
vt 0.500000 0.186182
vt 0.508818 0.192407
vt 0.491182 0.192407
vt 0.515232 0.190709
vt 0.484768 0.190709
vt 0.516908 0.181873
vt 0.483092 0.181873
vt 0.544209 0.172814
vt 0.455791 0.172814
vt 0.541327 0.154899
vt 0.458673 0.154899
vt 0.578661 0.139176
vt 0.421339 0.139176
vt 0.583245 0.154155
vt 0.416755 0.154155
vt 0.500000 0.089977
vt 0.509911 0.090724
vt 0.490089 0.090724
vt 0.509713 0.082236
vt 0.490287 0.082236
vt 0.505196 0.077083
vt 0.494804 0.077083
vt 0.500000 0.075473
vt 0.503445 0.080840
vt 0.500000 0.080320
vt 0.496555 0.080840
vt 0.506660 0.083289
vt 0.493340 0.083289
vt 0.506822 0.086791
vt 0.493178 0.086791
vt 0.500000 0.085637
vt 0.562361 0.284338
vt 0.559190 0.294882
vt 0.437639 0.284338
vt 0.440810 0.294882
vt 0.563180 0.307151
vt 0.436820 0.307151
vt 0.570458 0.318697
vt 0.429542 0.318697
vt 0.569243 0.278245
vt 0.430757 0.278245
vt 0.589914 0.271772
vt 0.410086 0.271772
vt 0.602190 0.277180
vt 0.397810 0.277180
vt 0.617110 0.287175
vt 0.382890 0.287175
vt 0.618074 0.299197
vt 0.381926 0.299197
vt 0.615871 0.307438
vt 0.384129 0.307438
vt 0.598424 0.313725
vt 0.401576 0.313725
vt 0.590828 0.319797
vt 0.409172 0.319797
vt 0.582130 0.320991
vt 0.417870 0.320991
vt 0.578615 0.309394
vt 0.583998 0.312892
vt 0.421385 0.309394
vt 0.416002 0.312892
vt 0.589656 0.312336
vt 0.410344 0.312336
vt 0.596347 0.309249
vt 0.403653 0.309249
vt 0.606014 0.302517
vt 0.393986 0.302517
vt 0.607735 0.297520
vt 0.392265 0.297520
vt 0.606985 0.291216
vt 0.393015 0.291216
vt 0.598275 0.283083
vt 0.401725 0.283083
vt 0.589866 0.280167
vt 0.410134 0.280167
vt 0.576352 0.284624
vt 0.423648 0.284624
vt 0.572831 0.289915
vt 0.427169 0.289915
vt 0.573307 0.303342
vt 0.426693 0.303342
vt 0.572447 0.295716
vt 0.427553 0.295716
vt 0.529647 0.428636
vt 0.500000 0.428636
vt 0.470353 0.428636
vt 0.584616 0.428636
vt 0.415384 0.428636
vt 0.622301 0.417889
vt 0.377699 0.417889
vt 0.666214 0.388954
vt 0.333786 0.388954
vt 0.701481 0.344467
vt 0.298519 0.344467
vt 0.712163 0.315527
vt 0.287837 0.315527
vt 0.704305 0.260225
vt 0.295695 0.260225
vt 0.672947 0.224880
vt 0.327053 0.224880
vt 0.640497 0.198841
vt 0.359503 0.198841
vt 0.603553 0.023452
vt 0.625128 0.029461
vt 0.635753 0.082198
vt 0.598617 0.056841
vt 0.364247 0.082198
vt 0.374872 0.029461
vt 0.396447 0.023452
vt 0.401383 0.056841
vt 0.546781 0.009442
vt 0.556354 0.040906
vt 0.453219 0.009442
vt 0.443646 0.040906
vt 0.500000 0.033223
vt 0.527159 0.049514
vt 0.472841 0.049514
vt 0.537222 0.060794
vt 0.462778 0.060794
vt 0.558499 0.065137
vt 0.441501 0.065137
vt 0.588127 0.085177
vt 0.411873 0.085177
vt 0.607239 0.113940
vt 0.392761 0.113940
vt 0.612663 0.133675
vt 0.605467 0.151503
vt 0.394533 0.151503
vt 0.387337 0.133675
vt 0.600708 0.162985
vt 0.399292 0.162985
vt 0.922374 0.064228
vt 0.859647 0.117994
vt 0.823287 0.101559
vt 0.861342 0.027230
vt 0.176713 0.101559
vt 0.140353 0.117994
vt 0.077626 0.064228
vt 0.138658 0.027230
vt 0.765863 0.087001
vt 0.774604 0.010837
vt 0.234137 0.087001
vt 0.225396 0.010837
vt 0.661952 0.087561
vt 0.647010 0.028716
vt 0.338048 0.087561
vt 0.352990 0.028716
vt 0.743592 0.198572
vt 0.766410 0.233065
vt 0.256408 0.198572
vt 0.233590 0.233065
vt 0.987633 0.154243
vt 0.889478 0.177602
vt 0.110522 0.177602
vt 0.012367 0.154243
vt 0.899807 0.420886
vt 0.844317 0.347370
vt 0.881169 0.309153
vt 0.958963 0.357385
vt 0.118831 0.309153
vt 0.155683 0.347370
vt 0.100193 0.420886
vt 0.041037 0.357385
vt 0.903302 0.261367
vt 0.999860 0.253531
vt 0.096698 0.261367
vt 0.000140 0.253531
vt 0.724763 0.340212
vt 0.744725 0.304629
vt 0.766113 0.319494
vt 0.255275 0.304629
vt 0.275237 0.340212
vt 0.233887 0.319494
vt 0.793427 0.280495
vt 0.826663 0.297810
vt 0.206573 0.280495
vt 0.173337 0.297810
vt 0.823620 0.254612
vt 0.855331 0.267956
vt 0.176380 0.254612
vt 0.144669 0.267956
vt 0.835860 0.225225
vt 0.868309 0.233525
vt 0.164140 0.225225
vt 0.131691 0.233525
vt 0.813499 0.190705
vt 0.851288 0.181145
vt 0.148712 0.181145
vt 0.186501 0.190705
vt 0.772263 0.374010
vt 0.227737 0.374010
vt 0.744519 0.390057
vt 0.255481 0.390057
vt 0.824765 0.470987
vt 0.175235 0.470987
vt 0.792141 0.464714
vt 0.742181 0.461543
vt 0.726855 0.432574
vt 0.273145 0.432574
vt 0.257819 0.461543
vt 0.207859 0.464714
vt 0.795638 0.489991
vt 0.204362 0.489991
vt 0.786137 0.227788
vt 0.213863 0.227788
vt 0.802950 0.203415
vt 0.197050 0.203415
vt 0.769334 0.128771
vt 0.691484 0.146686
vt 0.230666 0.128771
vt 0.308516 0.146686
vt 0.780113 0.169386
vt 0.219887 0.169386
vt 0.803789 0.171181
vt 0.830917 0.139518
vt 0.169083 0.139518
vt 0.196211 0.171181
vt 0.574628 0.959188
vt 0.464516 0.959188
vt 0.477326 0.891852
vt 0.545439 0.884582
vt 0.272900 0.891852
vt 0.285710 0.959188
vt 0.175598 0.959188
vt 0.204787 0.884582
vt 0.605134 0.846978
vt 0.715894 0.897069
vt 0.145092 0.846978
vt 0.034332 0.897069
vt 0.605360 0.784410
vt 0.683874 0.757011
vt 0.144866 0.784410
vt 0.066352 0.757011
vt 0.574835 0.744212
vt 0.617867 0.719156
vt 0.175391 0.744212
vt 0.132359 0.719156
vt 0.534996 0.712528
vt 0.568728 0.682132
vt 0.215230 0.712528
vt 0.181498 0.682132
vt 0.483006 0.686791
vt 0.508539 0.641024
vt 0.267220 0.686791
vt 0.241687 0.641024
vt 0.513415 0.736977
vt 0.478880 0.719593
vt 0.271346 0.719593
vt 0.236811 0.736977
vt 0.541117 0.760754
vt 0.209109 0.760754
vt 0.557599 0.789442
vt 0.192627 0.789442
vt 0.553841 0.821849
vt 0.196385 0.821849
vt 0.524671 0.842380
vt 0.225555 0.842380
vt 0.485193 0.845321
vt 0.265033 0.845321
vt 0.786150 0.181127
vt 0.770208 0.191225
vt 0.213850 0.181127
vt 0.229792 0.191225
vt 0.408153 0.587507
vt 0.409610 0.674022
vt 0.342073 0.587507
vt 0.340616 0.674022
vt 0.400301 0.910556
vt 0.414155 0.878318
vt 0.336071 0.878318
vt 0.349925 0.910556
vt 0.443630 0.713731
vt 0.306596 0.713731
vt 0.429725 0.728622
vt 0.392812 0.710774
vt 0.357414 0.710774
vt 0.320501 0.728622
vt 0.422979 0.754609
vt 0.432640 0.746527
vt 0.327247 0.754609
vt 0.317586 0.746527
vt 0.427719 0.796173
vt 0.391578 0.815187
vt 0.358648 0.815187
vt 0.322507 0.796173
vt 0.448277 0.830976
vt 0.301949 0.830976
vt 0.797710 0.195652
vt 0.802580 0.199758
vt 0.197420 0.199758
vt 0.202290 0.195652
vt 0.789609 0.184671
vt 0.210391 0.184671
vt 0.466042 0.804091
vt 0.490498 0.816075
vt 0.284184 0.804091
vt 0.259728 0.816075
vt 0.448042 0.783921
vt 0.302184 0.783921
vt 0.438745 0.764960
vt 0.311481 0.764960
vt 0.445216 0.756351
vt 0.305010 0.756351
vt 0.449819 0.743458
vt 0.300407 0.743458
vt 0.456307 0.732687
vt 0.293919 0.732687
vt 0.475471 0.740871
vt 0.274755 0.740871
vt 0.514211 0.817769
vt 0.236015 0.817769
vt 0.527961 0.808598
vt 0.222265 0.808598
vt 0.530079 0.790754
vt 0.220147 0.790754
vt 0.518620 0.772385
vt 0.231606 0.772385
vt 0.498668 0.755033
vt 0.251558 0.755033
vt 0.468029 0.756171
vt 0.459660 0.770459
vt 0.282197 0.756171
vt 0.290566 0.770459
vt 0.487167 0.769899
vt 0.477354 0.785393
vt 0.263059 0.769899
vt 0.272872 0.785393
vt 0.504617 0.782999
vt 0.496545 0.797122
vt 0.245609 0.782999
vt 0.253681 0.797122
vt 0.516137 0.792591
vt 0.513713 0.804019
vt 0.234089 0.792591
vt 0.236513 0.804019
vt 0.574269 0.607668
vt 0.613510 0.655816
vt 0.175957 0.607668
vt 0.136716 0.655816
vt 0.644031 0.693270
vt 0.106195 0.693270
vt 0.668163 0.712097
vt 0.082063 0.712097
vt 0.727131 0.698475
vt 0.676584 0.686010
vt 0.023095 0.698475
vt 0.073642 0.686010
vt 0.729804 0.624370
vt 0.667013 0.640198
vt 0.020422 0.624370
vt 0.083213 0.640198
vt 0.721292 0.572934
vt 0.648152 0.594596
vt 0.028934 0.572934
vt 0.102074 0.594596
vt 0.630034 0.557583
vt 0.717709 0.538143
vt 0.032517 0.538143
vt 0.120192 0.557583
vt 0.526877 0.539235
vt 0.223349 0.539235
s 1
f 47/1/1 1/2/2 3/3/3 45/4/4
f 4/5/5 2/6/6 48/7/7 46/8/8
f 45/4/4 3/3/3 5/9/9 43/10/10
f 6/11/11 4/5/5 46/8/8 44/12/12
f 3/3/3 9/13/13 7/14/14 5/9/9
f 8/15/15 10/16/16 4/5/5 6/11/11
f 1/2/2 11/17/17 9/13/13 3/3/3
f 10/16/16 12/18/18 2/6/6 4/5/5
f 11/17/17 13/19/19 15/20/20 9/13/13
f 16/21/21 14/22/22 12/18/18 10/16/16
f 9/13/13 15/20/20 17/23/23 7/14/14
f 18/24/24 16/21/21 10/16/16 8/15/15
f 15/20/20 21/25/25 19/26/26 17/23/23
f 20/27/27 22/28/28 16/21/21 18/24/24
f 13/19/19 23/29/29 21/25/25 15/20/20
f 22/28/28 24/30/30 14/22/22 16/21/21
f 23/29/29 25/31/31 27/32/32 21/25/25
f 28/33/33 26/34/34 24/30/30 22/28/28
f 21/25/25 27/32/32 29/35/35 19/26/26
f 30/36/36 28/33/33 22/28/28 20/27/27
f 27/32/32 33/37/37 31/38/38 29/35/35
f 32/39/39 34/40/40 28/33/33 30/36/36
f 25/31/31 35/41/41 33/37/37 27/32/32
f 34/40/40 36/42/42 26/34/34 28/33/33
f 35/41/41 37/43/43 39/44/44 33/37/37
f 40/45/45 38/46/46 36/42/42 34/40/40
f 33/37/37 39/44/44 41/47/47 31/38/38
f 42/48/48 40/45/45 34/40/40 32/39/39
f 39/44/44 45/4/4 43/10/10 41/47/47
f 44/12/12 46/8/8 40/45/45 42/48/48
f 37/43/43 47/1/1 45/4/4 39/44/44
f 46/8/8 48/7/7 38/46/46 40/45/45
f 47/1/1 37/43/43 51/49/49 49/50/50
f 52/51/51 38/46/46 48/7/7 50/52/52
f 37/43/43 35/41/41 53/53/53 51/49/49
f 54/54/54 36/42/42 38/46/46 52/51/51
f 35/41/41 25/31/31 55/55/55 53/53/53
f 56/56/56 26/34/34 36/42/42 54/54/54
f 25/31/31 23/29/29 57/57/57 55/55/55
f 58/58/58 24/30/30 26/34/34 56/56/56
f 23/29/29 13/19/19 59/59/59 57/57/57
f 60/60/60 14/22/22 24/30/30 58/58/58
f 13/19/19 11/17/17 63/61/61 59/59/59
f 64/62/62 12/18/18 14/22/22 60/60/60
f 11/17/17 1/2/2 65/63/63 63/61/61
f 66/64/64 2/6/6 12/18/18 64/62/62
f 1/2/2 47/1/1 49/50/50 65/63/63
f 50/52/52 48/7/7 2/6/6 66/64/64
f 61/65/65 65/63/63 49/50/50
f 50/52/52 66/64/64 62/66/66
f 63/61/61 65/63/63 61/65/65
f 62/66/66 66/64/64 64/62/62
f 61/65/65 59/59/59 63/61/61
f 64/62/62 60/60/60 62/66/66
f 61/65/65 57/57/57 59/59/59
f 60/60/60 58/58/58 62/66/66
f 61/65/65 55/55/55 57/57/57
f 58/58/58 56/56/56 62/66/66
f 61/65/65 53/53/53 55/55/55
f 56/56/56 54/54/54 62/66/66
f 61/65/65 51/49/49 53/53/53
f 54/54/54 52/51/51 62/66/66
f 61/65/65 49/50/50 51/49/49
f 52/51/51 50/52/52 62/66/66
f 89/67/67 174/68/68 176/69/69 91/70/70
f 176/69/69 175/71/71 90/72/72 91/70/70
f 87/73/73 172/74/74 174/68/68 89/67/67
f 175/71/71 173/75/75 88/76/76 90/72/72
f 85/77/77 170/78/78 172/74/74 87/73/73
f 173/75/75 171/79/79 86/80/80 88/76/76
f 83/81/81 168/82/82 170/78/78 85/77/77
f 171/79/79 169/83/83 84/84/84 86/80/80
f 81/85/85 166/86/86 168/82/82 83/81/81
f 169/83/83 167/87/87 82/88/88 84/84/84
f 79/89/89 92/90/90 146/91/91 164/92/92
f 147/93/93 93/94/94 80/95/95 165/96/96
f 92/90/90 94/97/97 148/98/98 146/91/91
f 149/99/99 95/100/100 93/94/94 147/93/93
f 94/97/97 96/101/101 150/102/102 148/98/98
f 151/103/103 97/104/104 95/100/100 149/99/99
f 96/101/101 98/105/105 152/106/106 150/102/102
f 153/107/107 99/108/108 97/104/104 151/103/103
f 98/105/105 100/109/109 154/110/110 152/106/106
f 155/111/111 101/112/112 99/108/108 153/107/107
f 100/109/109 102/113/113 156/114/114 154/110/110
f 157/115/115 103/116/116 101/112/112 155/111/111
f 102/113/113 104/117/117 158/118/118 156/114/114
f 159/119/119 105/120/120 103/116/116 157/115/115
f 104/117/117 106/121/121 160/122/122 158/118/118
f 161/123/123 107/124/124 105/120/120 159/119/119
f 106/121/121 108/125/125 162/126/126 160/122/122
f 163/127/127 109/128/128 107/124/124 161/123/123
f 108/125/125 67/129/129 68/130/130 162/126/126
f 68/130/130 67/129/129 109/128/128 163/127/127
f 110/131/131 128/132/132 160/122/122 162/126/126
f 161/123/123 129/133/133 111/134/134 163/127/127
f 128/132/132 179/135/135 158/118/118 160/122/122
f 159/119/119 180/136/136 129/133/133 161/123/123
f 126/137/137 156/114/114 158/118/118 179/135/135
f 159/119/119 157/115/115 127/138/138 180/136/136
f 124/139/139 154/110/110 156/114/114 126/137/137
f 157/115/115 155/111/111 125/140/140 127/138/138
f 122/141/141 152/106/106 154/110/110 124/139/139
f 155/111/111 153/107/107 123/142/142 125/140/140
f 120/143/143 150/102/102 152/106/106 122/141/141
f 153/107/107 151/103/103 121/144/144 123/142/142
f 118/145/145 148/98/98 150/102/102 120/143/143
f 151/103/103 149/99/99 119/146/146 121/144/144
f 116/147/147 146/91/91 148/98/98 118/145/145
f 149/99/99 147/93/93 117/148/148 119/146/146
f 114/149/149 164/92/92 146/91/91 116/147/147
f 147/93/93 165/96/96 115/150/150 117/148/148
f 114/149/149 181/151/151 177/152/152 164/92/92
f 177/152/152 182/153/153 115/150/150 165/96/96
f 110/131/131 162/126/126 68/130/130 112/154/154
f 68/130/130 163/127/127 111/134/134 113/155/155
f 112/154/154 68/130/130 178/156/156 183/157/157
f 178/156/156 68/130/130 113/155/155 184/158/158
f 177/152/152 181/151/151 183/157/157 178/156/156
f 184/158/158 182/153/153 177/152/152 178/156/156
f 135/159/159 137/160/160 176/69/69 174/68/68
f 176/69/69 137/160/160 136/161/161 175/71/71
f 133/162/162 135/159/159 174/68/68 172/74/74
f 175/71/71 136/161/161 134/163/163 173/75/75
f 131/164/164 133/162/162 172/74/74 170/78/78
f 173/75/75 134/163/163 132/165/165 171/79/79
f 166/86/86 187/166/166 185/167/167 168/82/82
f 186/168/168 188/169/169 167/87/87 169/83/83
f 131/164/164 170/78/78 168/82/82 185/167/167
f 169/83/83 171/79/79 132/165/165 186/168/168
f 144/170/170 190/171/171 189/172/172 187/166/166
f 189/172/172 190/171/171 145/173/173 188/169/169
f 185/167/167 187/166/166 189/172/172 69/174/174
f 189/172/172 188/169/169 186/168/168 69/174/174
f 130/175/175 131/164/164 185/167/167 69/174/174
f 186/168/168 132/165/165 130/175/175 69/174/174
f 142/176/176 193/177/177 191/178/178 144/170/170
f 192/179/179 194/180/180 143/181/181 145/173/173
f 140/182/182 195/183/183 193/177/177 142/176/176
f 194/180/180 196/184/184 141/185/185 143/181/181
f 139/186/186 197/187/187 195/183/183 140/182/182
f 196/184/184 198/188/188 139/186/186 141/185/185
f 138/189/189 71/190/190 197/187/187 139/186/186
f 198/188/188 71/190/190 138/189/189 139/186/186
f 190/171/171 144/170/170 191/178/178 70/191/191
f 192/179/179 145/173/173 190/171/171 70/191/191
f 70/191/191 191/178/178 206/192/192 208/193/193
f 207/194/194 192/179/179 70/191/191 208/193/193
f 71/190/190 199/195/195 200/196/196 197/187/187
f 201/197/197 199/195/195 71/190/190 198/188/188
f 197/187/187 200/196/196 202/198/198 195/183/183
f 203/199/199 201/197/197 198/188/188 196/184/184
f 195/183/183 202/198/198 204/200/200 193/177/177
f 205/201/201 203/199/199 196/184/184 194/180/180
f 193/177/177 204/200/200 206/192/192 191/178/178
f 207/194/194 205/201/201 194/180/180 192/179/179
f 199/195/195 204/200/200 202/198/198 200/196/196
f 203/199/199 205/201/201 199/195/195 201/197/197
f 199/195/195 208/193/193 206/192/192 204/200/200
f 207/194/194 208/193/193 199/195/195 205/201/201
f 139/186/186 140/182/182 164/92/92 177/152/152
f 165/96/96 141/185/185 139/186/186 177/152/152
f 140/182/182 142/176/176 211/202/202 164/92/92
f 212/203/203 143/181/181 141/185/185 165/96/96
f 142/176/176 144/170/170 213/204/204 211/202/202
f 214/205/205 145/173/173 143/181/181 212/203/203
f 144/170/170 187/166/166 166/86/86 213/204/204
f 167/87/87 188/169/169 145/173/173 214/205/205
f 81/85/85 209/206/206 213/204/204 166/86/86
f 214/205/205 210/207/207 82/88/88 167/87/87
f 209/206/206 215/208/208 211/202/202 213/204/204
f 212/203/203 216/209/209 210/207/207 214/205/205
f 79/89/89 164/92/92 211/202/202 215/208/208
f 212/203/203 165/96/96 80/95/95 216/209/209
f 131/164/164 130/175/175 72/210/210 222/211/211
f 72/210/210 130/175/175 132/165/165 223/212/212
f 133/162/162 131/164/164 222/211/211 220/213/213
f 223/212/212 132/165/165 134/163/163 221/214/214
f 135/159/159 133/162/162 220/213/213 218/215/215
f 221/214/214 134/163/163 136/161/161 219/216/216
f 137/160/160 135/159/159 218/215/215 217/217/217
f 219/216/216 136/161/161 137/160/160 217/217/217
f 217/217/217 218/215/215 229/218/218 231/219/219
f 230/220/220 219/216/216 217/217/217 231/219/219
f 218/215/215 220/213/213 227/221/221 229/218/218
f 228/222/222 221/214/214 219/216/216 230/220/220
f 220/213/213 222/211/211 225/223/223 227/221/221
f 226/224/224 223/212/212 221/214/214 228/222/222
f 222/211/211 72/210/210 224/225/225 225/223/223
f 224/225/225 72/210/210 223/212/212 226/224/224
f 224/225/225 231/219/219 229/218/218 225/223/223
f 230/220/220 231/219/219 224/225/225 226/224/224
f 225/223/223 229/218/218 227/221/221
f 228/222/222 230/220/220 226/224/224
f 183/157/157 181/151/151 234/226/226 232/227/227
f 235/228/228 182/153/153 184/158/158 233/229/229
f 112/154/154 183/157/157 232/227/227 254/230/230
f 233/229/229 184/158/158 113/155/155 255/231/231
f 110/131/131 112/154/154 254/230/230 256/232/232
f 255/231/231 113/155/155 111/134/134 257/233/233
f 181/151/151 114/149/149 252/234/234 234/226/226
f 253/235/235 115/150/150 182/153/153 235/228/228
f 114/149/149 116/147/147 250/236/236 252/234/234
f 251/237/237 117/148/148 115/150/150 253/235/235
f 116/147/147 118/145/145 248/238/238 250/236/236
f 249/239/239 119/146/146 117/148/148 251/237/237
f 118/145/145 120/143/143 246/240/240 248/238/238
f 247/241/241 121/144/144 119/146/146 249/239/239
f 120/143/143 122/141/141 244/242/242 246/240/240
f 245/243/243 123/142/142 121/144/144 247/241/241
f 122/141/141 124/139/139 242/244/244 244/242/242
f 243/245/245 125/140/140 123/142/142 245/243/243
f 124/139/139 126/137/137 240/246/246 242/244/244
f 241/247/247 127/138/138 125/140/140 243/245/245
f 126/137/137 179/135/135 236/248/248 240/246/246
f 237/249/249 180/136/136 127/138/138 241/247/247
f 179/135/135 128/132/132 238/250/250 236/248/248
f 239/251/251 129/133/133 180/136/136 237/249/249
f 128/132/132 110/131/131 256/232/232 238/250/250
f 257/233/233 111/134/134 129/133/133 239/251/251
f 238/250/250 256/232/232 258/252/252 276/253/253
f 259/254/254 257/233/233 239/251/251 277/255/255
f 236/248/248 238/250/250 276/253/253 278/256/256
f 277/255/255 239/251/251 237/249/249 279/257/257
f 240/246/246 236/248/248 278/256/256 274/258/258
f 279/257/257 237/249/249 241/247/247 275/259/259
f 242/244/244 240/246/246 274/258/258 272/260/260
f 275/259/259 241/247/247 243/245/245 273/261/261
f 244/242/242 242/244/244 272/260/260 270/262/262
f 273/261/261 243/245/245 245/243/243 271/263/263
f 246/240/240 244/242/242 270/262/262 268/264/264
f 271/263/263 245/243/243 247/241/241 269/265/265
f 248/238/238 246/240/240 268/264/264 266/266/266
f 269/265/265 247/241/241 249/239/239 267/267/267
f 250/236/236 248/238/238 266/266/266 264/268/268
f 267/267/267 249/239/239 251/237/237 265/269/269
f 252/234/234 250/236/236 264/268/268 262/270/270
f 265/269/269 251/237/237 253/235/235 263/271/271
f 234/226/226 252/234/234 262/270/270 280/272/272
f 263/271/271 253/235/235 235/228/228 281/273/273
f 256/232/232 254/230/230 260/274/274 258/252/252
f 261/275/275 255/231/231 257/233/233 259/254/254
f 254/230/230 232/227/227 282/276/276 260/274/274
f 283/277/277 233/229/229 255/231/231 261/275/275
f 232/227/227 234/226/226 280/272/272 282/276/276
f 281/273/273 235/228/228 233/229/229 283/277/277
f 67/129/129 108/125/125 284/278/278 73/279/279
f 285/280/280 109/128/128 67/129/129 73/279/279
f 108/125/125 106/121/121 286/281/281 284/278/278
f 287/282/282 107/124/124 109/128/128 285/280/280
f 106/121/121 104/117/117 288/283/283 286/281/281
f 289/284/284 105/120/120 107/124/124 287/282/282
f 104/117/117 102/113/113 290/285/285 288/283/283
f 291/286/286 103/116/116 105/120/120 289/284/284
f 102/113/113 100/109/109 292/287/287 290/285/285
f 293/288/288 101/112/112 103/116/116 291/286/286
f 100/109/109 98/105/105 294/289/289 292/287/287
f 295/290/290 99/108/108 101/112/112 293/288/288
f 98/105/105 96/101/101 296/291/291 294/289/289
f 297/292/292 97/104/104 99/108/108 295/290/290
f 96/101/101 94/97/97 298/293/293 296/291/291
f 299/294/294 95/100/100 97/104/104 297/292/292
f 94/97/97 92/90/90 300/295/295 298/293/293
f 301/296/296 93/94/94 95/100/100 299/294/294
f 308/297/297 309/298/298 328/299/299 338/300/300
f 329/301/301 309/302/298 308/303/297 339/304/302
f 307/305/303 308/297/297 338/300/300 336/306/304
f 339/304/302 308/303/297 307/307/303 337/308/305
f 306/309/306 307/305/303 336/306/304 340/310/307
f 337/308/305 307/307/303 306/309/306 341/311/308
f 89/67/67 91/70/70 306/309/306 340/310/307
f 306/309/306 91/70/70 90/72/72 341/311/308
f 87/73/73 89/67/67 340/310/307 334/312/309
f 341/311/308 90/72/72 88/76/76 335/313/310
f 85/77/77 87/73/73 334/312/309 330/314/311
f 335/313/310 88/76/76 86/80/80 331/315/312
f 83/81/81 85/77/77 330/314/311 332/316/313
f 331/315/312 86/80/80 84/84/84 333/317/314
f 330/314/311 336/306/304 338/300/300 332/316/313
f 339/304/302 337/308/305 331/315/312 333/317/314
f 330/314/311 334/312/309 340/310/307 336/306/304
f 341/311/308 335/313/310 331/315/312 337/308/305
f 326/318/315 332/316/313 338/300/300 328/299/299
f 339/304/302 333/317/314 327/319/316 329/301/301
f 81/85/85 83/81/81 332/316/313 326/318/315
f 333/317/314 84/84/84 82/88/88 327/319/316
f 209/206/206 342/320/317 344/321/318 215/208/208
f 345/322/319 343/323/320 210/207/207 216/209/209
f 81/85/85 326/318/315 342/320/317 209/206/206
f 343/323/320 327/319/316 82/88/88 210/207/207
f 79/89/89 215/208/208 344/321/318 346/324/321
f 345/322/319 216/209/209 80/95/95 347/325/322
f 79/89/89 346/324/321 300/295/295 92/90/90
f 301/296/296 347/325/322 80/95/95 93/94/94
f 77/326/323 324/327/324 352/328/325 304/329/326
f 353/330/327 325/331/328 77/332/323 304/333/326
f 304/329/326 352/328/325 350/334/329 78/335/330
f 351/336/331 353/330/327 304/333/326 78/337/330
f 78/335/330 350/334/329 348/338/332 305/339/333
f 349/340/334 351/336/331 78/337/330 305/341/333
f 305/339/333 348/338/332 328/299/299 309/298/298
f 329/301/301 349/340/334 305/341/333 309/302/298
f 326/318/315 328/299/299 348/338/332 342/320/317
f 349/340/334 329/301/301 327/319/316 343/323/320
f 296/291/291 298/293/293 318/342/335 310/343/336
f 319/344/337 299/294/294 297/292/292 311/345/338
f 76/346/339 316/347/340 324/327/324 77/326/323
f 325/331/328 317/348/341 76/349/339 77/332/323
f 302/350/342 358/351/343 356/352/344 303/353/345
f 357/354/346 359/355/347 302/356/342 303/357/345
f 303/353/345 356/352/344 354/358/348 75/359/349
f 355/360/350 357/354/346 303/357/345 75/361/349
f 75/359/349 354/358/348 316/347/340 76/346/339
f 317/348/341 355/360/350 75/361/349 76/349/339
f 292/362/287 294/289/289 362/363/351 364/364/352
f 363/365/353 295/290/290 293/366/288 365/367/354
f 364/364/352 362/363/351 368/368/355 366/369/356
f 369/370/357 363/365/353 365/367/354 367/371/358
f 366/369/356 368/368/355 370/372/359 372/373/360
f 371/374/361 369/370/357 367/371/358 373/375/362
f 372/373/360 370/372/359 376/376/363 374/377/364
f 377/378/365 371/374/361 373/375/362 375/379/366
f 314/380/367 378/381/368 374/377/364 376/376/363
f 375/379/366 379/382/369 315/383/370 377/378/365
f 316/347/340 354/358/348 374/377/364 378/381/368
f 375/379/366 355/360/350 317/348/341 379/382/369
f 354/358/348 356/352/344 372/373/360 374/377/364
f 373/375/362 357/354/346 355/360/350 375/379/366
f 356/352/344 358/351/343 366/369/356 372/373/360
f 367/371/358 359/355/347 357/354/346 373/375/362
f 358/351/343 360/384/371 364/364/352 366/369/356
f 365/367/354 361/385/372 359/355/347 367/371/358
f 290/386/285 292/362/287 364/364/352 360/384/371
f 365/367/354 293/366/288 291/387/286 361/385/372
f 74/388/373 360/384/371 358/351/343 302/350/342
f 359/355/347 361/385/372 74/389/373 302/356/342
f 284/390/278 286/391/281 288/392/283 290/386/285
f 289/393/284 287/394/282 285/395/280 291/387/286
f 284/390/278 290/386/285 360/384/371 74/388/373
f 361/385/372 291/387/286 285/395/280 74/389/373
f 73/396/279 284/390/278 74/388/373
f 74/389/373 285/395/280 73/397/279
f 294/289/289 296/291/291 310/343/336 362/363/351
f 311/345/338 297/292/292 295/290/290 363/365/353
f 310/343/336 312/398/374 368/368/355 362/363/351
f 369/370/357 313/399/375 311/345/338 363/365/353
f 312/398/374 382/400/376 370/372/359 368/368/355
f 371/374/361 383/401/377 313/399/375 369/370/357
f 314/380/367 376/376/363 370/372/359 382/400/376
f 371/374/361 377/378/365 315/383/370 383/401/377
f 348/338/332 350/334/329 386/402/378 384/403/379
f 387/404/380 351/336/331 349/340/334 385/405/381
f 318/342/335 384/403/379 386/402/378 320/406/382
f 387/404/380 385/405/381 319/344/337 321/407/383
f 298/293/293 300/295/295 384/403/379 318/342/335
f 385/405/381 301/296/296 299/294/294 319/344/337
f 300/295/295 344/321/318 342/320/317 384/403/379
f 343/323/320 345/322/319 301/296/296 385/405/381
f 342/320/317 348/338/332 384/403/379
f 385/405/381 349/340/334 343/323/320
f 300/295/295 346/324/321 344/321/318
f 345/322/319 347/325/322 301/296/296
f 314/380/367 322/408/384 380/409/385 378/381/368
f 381/410/386 323/411/387 315/383/370 379/382/369
f 316/347/340 378/381/368 380/409/385 324/327/324
f 381/410/386 379/382/369 317/348/341 325/331/328
f 320/406/382 386/402/378 380/409/385 322/408/384
f 381/410/386 387/404/380 321/407/383 323/411/387
f 350/334/329 352/328/325 380/409/385 386/402/378
f 381/410/386 353/330/327 351/336/331 387/404/380
f 324/327/324 380/409/385 352/328/325
f 353/330/327 381/410/386 325/331/328
f 400/412/388 388/413/389 414/414/390 402/415/391
f 415/416/392 389/417/393 401/418/394 403/419/395
f 400/412/388 402/415/391 404/420/396 398/421/397
f 405/422/398 403/419/395 401/418/394 399/423/399
f 398/421/397 404/420/396 406/424/400 396/425/401
f 407/426/402 405/422/398 399/423/399 397/427/403
f 396/425/401 406/424/400 408/428/404 394/429/405
f 409/430/406 407/426/402 397/427/403 395/431/407
f 394/429/405 408/428/404 410/432/408 392/433/409
f 411/434/410 409/430/406 395/431/407 393/435/411
f 392/433/409 410/432/408 412/436/412 390/437/413
f 413/438/414 411/434/410 393/435/411 391/439/415
f 410/432/408 420/440/416 418/441/417 412/436/412
f 419/442/418 421/443/419 411/434/410 413/438/414
f 408/428/404 422/444/420 420/440/416 410/432/408
f 421/443/419 423/445/421 409/430/406 411/434/410
f 406/424/400 424/446/422 422/444/420 408/428/404
f 423/445/421 425/447/423 407/426/402 409/430/406
f 404/420/396 426/448/424 424/446/422 406/424/400
f 425/447/423 427/449/425 405/422/398 407/426/402
f 402/415/391 428/450/426 426/448/424 404/420/396
f 427/449/425 429/451/427 403/419/395 405/422/398
f 402/415/391 414/414/390 416/452/428 428/450/426
f 417/453/429 415/416/392 403/419/395 429/451/427
f 318/342/335 320/406/382 444/454/430 442/455/431
f 445/456/432 321/407/383 319/344/337 443/457/433
f 320/458/382 390/437/413 412/436/412 444/459/430
f 413/438/414 391/439/415 321/460/383 445/461/432
f 310/343/336 318/342/335 442/455/431 312/398/374
f 443/457/433 319/344/337 311/345/338 313/399/375
f 382/462/376 430/463/434 414/414/390 388/413/389
f 415/416/392 431/464/435 383/465/377 389/417/393
f 412/436/412 418/441/417 440/466/436 444/459/430
f 441/467/437 419/442/418 413/438/414 445/461/432
f 438/468/438 446/469/439 444/459/430 440/466/436
f 445/461/432 447/470/440 439/471/441 441/467/437
f 434/472/442 446/469/439 438/468/438 436/473/443
f 439/471/441 447/470/440 435/474/444 437/475/445
f 432/476/446 448/477/447 446/469/439 434/472/442
f 447/470/440 449/478/448 433/479/449 435/474/444
f 430/463/434 448/477/447 432/476/446 450/480/450
f 433/479/449 449/478/448 431/464/435 451/481/451
f 414/414/390 430/463/434 450/480/450 416/452/428
f 451/481/451 431/464/435 415/416/392 417/453/429
f 312/398/374 448/482/447 430/483/434 382/400/376
f 431/484/435 449/485/448 313/399/375 383/401/377
f 312/398/374 442/455/431 446/486/439 448/482/447
f 447/487/440 443/457/433 313/399/375 449/485/448
f 442/455/431 444/454/430 446/486/439
f 447/487/440 445/456/432 443/457/433
f 416/452/428 450/480/450 452/488/452 476/489/453
f 453/490/454 451/481/451 417/453/429 477/491/455
f 450/480/450 432/476/446 462/492/456 452/488/452
f 463/493/457 433/479/449 451/481/451 453/490/454
f 432/476/446 434/472/442 460/494/458 462/492/456
f 461/495/459 435/474/444 433/479/449 463/493/457
f 434/472/442 436/473/443 458/496/460 460/494/458
f 459/497/461 437/475/445 435/474/444 461/495/459
f 436/473/443 438/468/438 456/498/462 458/496/460
f 457/499/463 439/471/441 437/475/445 459/497/461
f 438/468/438 440/466/436 454/500/464 456/498/462
f 455/501/465 441/467/437 439/471/441 457/499/463
f 440/466/436 418/441/417 474/502/466 454/500/464
f 475/503/467 419/442/418 441/467/437 455/501/465
f 428/450/426 416/452/428 476/489/453 464/504/468
f 477/491/455 417/453/429 429/451/427 465/505/469
f 426/448/424 428/450/426 464/504/468 466/506/470
f 465/505/469 429/451/427 427/449/425 467/507/471
f 424/446/422 426/448/424 466/506/470 468/508/472
f 467/507/471 427/449/425 425/447/423 469/509/473
f 422/444/420 424/446/422 468/508/472 470/510/474
f 469/509/473 425/447/423 423/445/421 471/511/475
f 420/440/416 422/444/420 470/510/474 472/512/476
f 471/511/475 423/445/421 421/443/419 473/513/477
f 418/441/417 420/440/416 472/512/476 474/502/466
f 473/513/477 421/443/419 419/442/418 475/503/467
f 458/496/460 456/498/462 480/514/478 478/515/479
f 481/516/480 457/499/463 459/497/461 479/517/481
f 478/515/479 480/514/478 482/518/482 484/519/483
f 483/520/484 481/516/480 479/517/481 485/521/485
f 484/519/483 482/518/482 488/522/486 486/523/487
f 489/524/488 483/520/484 485/521/485 487/525/489
f 486/523/487 488/522/486 490/526/490 492/527/491
f 491/528/492 489/524/488 487/525/489 493/529/493
f 464/504/468 476/489/453 486/523/487 492/527/491
f 487/525/489 477/491/455 465/505/469 493/529/493
f 452/488/452 484/519/483 486/523/487 476/489/453
f 487/525/489 485/521/485 453/490/454 477/491/455
f 452/488/452 462/492/456 478/515/479 484/519/483
f 479/517/481 463/493/457 453/490/454 485/521/485
f 458/496/460 478/515/479 462/492/456 460/494/458
f 463/493/457 479/517/481 459/497/461 461/495/459
f 454/500/464 474/502/466 480/514/478 456/498/462
f 481/516/480 475/503/467 455/501/465 457/499/463
f 472/512/476 482/518/482 480/514/478 474/502/466
f 481/516/480 483/520/484 473/513/477 475/503/467
f 470/510/474 488/522/486 482/518/482 472/512/476
f 483/520/484 489/524/488 471/511/475 473/513/477
f 468/508/472 490/526/490 488/522/486 470/510/474
f 489/524/488 491/528/492 469/509/473 471/511/475
f 466/506/470 492/527/491 490/526/490 468/508/472
f 491/528/492 493/529/493 467/507/471 469/509/473
f 464/504/468 492/527/491 466/506/470
f 467/507/471 493/529/493 465/505/469
f 392/433/409 390/437/413 504/530/494 502/531/495
f 505/532/496 391/439/415 393/435/411 503/533/497
f 394/429/405 392/433/409 502/531/495 500/534/498
f 503/533/497 393/435/411 395/431/407 501/535/499
f 396/425/401 394/429/405 500/534/498 498/536/500
f 501/535/499 395/431/407 397/427/403 499/537/501
f 398/538/397 396/425/401 498/536/500 496/539/502
f 499/537/501 397/427/403 399/540/399 497/541/503
f 400/542/388 398/538/397 496/539/502 494/543/504
f 497/541/503 399/540/399 401/544/394 495/545/505
f 388/546/389 400/542/388 494/543/504 506/547/506
f 495/545/505 401/544/394 389/548/393 507/549/507
f 494/543/504 502/531/495 504/530/494 506/547/506
f 505/532/496 503/533/497 495/545/505 507/549/507
f 494/543/504 496/539/502 500/534/498 502/531/495
f 501/535/499 497/541/503 495/545/505 503/533/497
f 496/539/502 498/536/500 500/534/498
f 501/535/499 499/537/501 497/541/503
f 314/550/367 382/551/376 388/546/389 506/547/506
f 389/548/393 383/552/377 315/553/370 507/549/507
f 314/550/367 506/547/506 504/530/494 322/554/384
f 505/532/496 507/549/507 315/553/370 323/555/387
f 320/458/382 322/554/384 504/530/494 390/437/413
f 505/532/496 323/555/387 321/460/383 391/439/415
